<?xml version="1.0" encoding="UTF-8"?>
<svg version="1.1" xmlns="http://www.w3.org/2000/svg" width="560" height="265">
<path d="M0 0 C6.11438994 3.54785589 10.50778941 7.91349928 13.3125 14.4375 C13.60151287 16.0350989 13.84958857 17.64049094 14.0625 19.25 C14.92550842 24.0070708 16.57705458 26.58584648 19.97265625 29.96484375 C22.78632567 33.05741917 22.7731451 36.98348956 22.71484375 40.9609375 C21.82144549 46.46010736 18.48250598 50.76916207 14.1328125 54.11328125 C12.22743315 55.31685717 10.32333428 56.42187558 8.3125 57.4375 C10.03931437 57.94556447 11.76907979 58.44360467 13.5 58.9375 C14.46292969 59.2159375 15.42585938 59.494375 16.41796875 59.78125 C19.20504484 60.4131377 21.47088851 60.69008769 24.3125 60.4375 C26.77202223 58.81169918 26.77202223 58.81169918 28.3125 56.4375 C28.10092197 54.03961564 27.38457819 52.58165639 26.3125 50.4375 C26.05388957 47.39882745 25.89734117 45.24187023 27.3125 42.5 C30.03347923 41.05447979 32.32652383 41.29505909 35.3125 41.7890625 C39.67271489 43.20272592 41.87727651 46.78466477 44.3125 50.4375 C45.42625 50.23125 46.54 50.025 47.6875 49.8125 C48.88375 49.68875 50.08 49.565 51.3125 49.4375 C51.9725 50.0975 52.6325 50.7575 53.3125 51.4375 C52.94568342 54.37203261 52.44812754 55.30187246 50.3125 57.4375 C48.9925 57.4375 47.6725 57.4375 46.3125 57.4375 C46.18294922 58.36369141 46.18294922 58.36369141 46.05078125 59.30859375 C44.96438041 65.85689973 42.85376398 70.84176226 39.3125 76.4375 C42.6988251 77.94680183 42.6988251 77.94680183 46.3125 78.4375 C46.4053125 76.890625 46.4053125 76.890625 46.5 75.3125 C47.48664812 70.60694743 48.77449658 68.67439674 52.3125 65.4375 C57.81848885 62.9692981 60.65508611 63.27641274 66.3125 65.3125 C67.98788647 65.99995477 69.65789049 66.70144209 71.3125 67.4375 C71.580625 66.81875 71.84875 66.2 72.125 65.5625 C73.3125 63.4375 73.3125 63.4375 76.3125 61.4375 C79.9375 61.6875 79.9375 61.6875 83.3125 62.4375 C84.9294889 65.67147779 84.75793405 68.93018435 84.3125 72.4375 C83.56298828 74.3605957 83.56298828 74.3605957 82.5703125 76.36328125 C79.24501777 83.53061457 77.09662412 91.13113025 74.75585938 98.6640625 C71.87041559 107.62544078 68.9953882 114.54713573 60.58203125 119.4375 C56.64646383 121.17158823 52.55292204 121.85531091 48.3125 122.4375 C47.9721875 121.85742188 47.631875 121.27734375 47.28125 120.6796875 C43.24853929 114.18015907 38.74713521 108.91571174 31.3125 106.4375 C31.3125 105.7775 31.3125 105.1175 31.3125 104.4375 C30.60222656 104.19 29.89195312 103.9425 29.16015625 103.6875 C25.97649726 102.29000908 23.52028702 100.53351688 20.75 98.4375 C17.14762903 95.67479974 17.14762903 95.67479974 13.22265625 93.4375 C11.3125 92.4375 11.3125 92.4375 9.3828125 90.49609375 C3.17753303 84.32593851 -5.61537455 82.06320335 -13.875 80 C-23.56791212 77.54262785 -29.66801252 73.529846 -35.6875 65.4375 C-36.98491247 63.23559062 -38.2342764 61.00475875 -39.4375 58.75 C-40.05109375 57.61175781 -40.6646875 56.47351563 -41.296875 55.30078125 C-42.6875 52.4375 -42.6875 52.4375 -42.6875 50.4375 C-43.3475 50.1075 -44.0075 49.7775 -44.6875 49.4375 C-48.38865182 39.14410795 -50.8633519 30.02367299 -47.6875 19.4375 C-47.34759726 18.10582624 -47.01248495 16.7728927 -46.6875 15.4375 C-46.0275 15.4375 -45.3675 15.4375 -44.6875 15.4375 C-44.44 14.1690625 -44.44 14.1690625 -44.1875 12.875 C-40.98421085 5.53412904 -33.88209373 1.40467169 -26.6875 -1.5625 C-18.37245274 -4.33418242 -7.87049222 -3.71771995 0 0 Z " fill="#DB9296" transform="translate(101.6875,85.5625)"/>
<path d="M0 0 C3.72617179 0.13213375 5.03713006 1.03307213 7.859375 3.546875 C8.83454679 4.60397179 9.79786303 5.67210909 10.75 6.75 C11.24371094 7.2759375 11.73742187 7.801875 12.24609375 8.34375 C15.16151093 11.57067751 16.21030892 13.81246383 17 18 C18.78109062 19.43164949 18.78109062 19.43164949 21.0625 20.375 C30.38507492 25.1694671 35.86973529 31.31031324 40 41 C43.06489675 52.23795476 41.88999335 66.7649882 36.3828125 77.0078125 C29.14258672 88.6605364 20.29995285 97.13734528 6.65625 100.59375 C-6.47942695 102.60273589 -19.42284019 100.69175582 -30.54296875 93.3125 C-40.87249033 85.56145203 -48.07335141 74.69460117 -50.61328125 61.9140625 C-51.9772752 51.63588585 -49.73692022 42.84802542 -47 33 C-46.34 33 -45.68 33 -45 33 C-44.731875 32.0925 -44.46375 31.185 -44.1875 30.25 C-43.09868368 27.27008166 -42.13608899 25.31409641 -40 23 C-39.34 23 -38.68 23 -38 23 C-38 22.34 -38 21.68 -38 21 C-37.34 21 -36.68 21 -36 21 C-36 20.34 -36 19.68 -36 19 C-25.29426372 10.59278737 -14.42246404 7.42678741 -1 7 C-1.020625 6.030625 -1.04125 5.06125 -1.0625 4.0625 C-1 1 -1 1 0 0 Z M-31 30 C-31.680625 30.721875 -32.36125 31.44375 -33.0625 32.1875 C-38.18938563 39.62975334 -41.05331003 48.95307686 -40 58 C-38.38783259 64.90809558 -36.75757979 70.61274053 -32 76 C-28.04 75.01 -24.08 74.02 -20 73 C-20.7425 72.443125 -21.485 71.88625 -22.25 71.3125 C-25.47673951 68.59910541 -28.10512328 65.78975344 -30 62 C-30.44072226 55.81963901 -30.55353416 49.71505265 -28 44 C-25.5 42.875 -25.5 42.875 -23 42 C-20.64635803 37.99880865 -20.46176068 33.54064672 -20 29 C-19.34 29 -18.68 29 -18 29 C-17.525625 28.29875 -17.05125 27.5975 -16.5625 26.875 C-12.78714867 22.63923997 -8.02511392 20.52122095 -3 18 C-3 17.67 -3 17.34 -3 17 C-13.82118161 15.83014253 -23.96089995 22.40518152 -31 30 Z " fill="#B9C2B2" transform="translate(185,38)"/>
<path d="M0 0 C1.65 0 3.3 0 5 0 C5.08636719 0.72703125 5.17273437 1.4540625 5.26171875 2.203125 C6.93259747 14.15987181 10.80084035 24.03973692 19 33 C19.54914063 33.62648437 20.09828125 34.25296875 20.6640625 34.8984375 C28.18627981 42.48692985 39.52500795 44.88948718 49.4375 48.0625 C58.38801094 51.02992007 64.79769247 55.54455853 71.96875 61.59765625 C75.25362203 64.20100199 78.64329409 66.45960536 82.1875 68.6875 C97.8147586 78.5368965 97.8147586 78.5368965 100 84 C100.5 87.125 100.5 87.125 100 90 C97.29125733 92.13873747 95.6821089 93.00095267 92.203125 92.99609375 C85.61387828 91.74971507 79.98899436 89.98376421 74 87 C72.31570126 86.24283818 70.62824208 85.49266241 68.9375 84.75 C67.625 84.16666667 66.3125 83.58333333 65 83 C66.47810824 87.42440454 69.81630401 89.00611437 73.6875 91.125 C74.28755859 91.47175781 74.88761719 91.81851563 75.50585938 92.17578125 C82.61702113 96.16292028 89.24462851 97.36293405 97.3125 97.3125 C98.18116699 97.31121094 99.04983398 97.30992187 99.94482422 97.30859375 C106.74541995 97.20990925 113.21841781 96.31417213 119.89379883 95.08081055 C130.6301354 93.10214527 139.1650935 93.6522907 149.0625 98.5 C151 100 151 100 152 103 C141.16844486 110.20136091 130.60380753 113.34624427 118 116 C116.97777344 116.22945313 115.95554687 116.45890625 114.90234375 116.6953125 C102.7572804 119.12090884 88.97505231 119.35497375 77 116 C76.06027344 115.77763672 76.06027344 115.77763672 75.1015625 115.55078125 C72.46146409 114.85885955 69.89860418 113.99717631 67.3125 113.125 C66.26191406 112.77179688 65.21132812 112.41859375 64.12890625 112.0546875 C63.09636719 111.70664063 62.06382813 111.35859375 61 111 C59.25024556 110.4159305 57.50027718 109.83250112 55.75 109.25 C54.5125 108.8375 53.275 108.425 52 108 C52 107.34 52 106.68 52 106 C51.484375 105.9175 50.96875 105.835 50.4375 105.75 C46.95544268 104.67859775 44.12799115 102.86476395 41 101 C41 100.34 41 99.68 41 99 C40.071875 98.5359375 40.071875 98.5359375 39.125 98.0625 C37.75 97.375 36.375 96.6875 35 96 C35 95.34 35 94.68 35 94 C34.071875 93.5359375 34.071875 93.5359375 33.125 93.0625 C31.75 92.375 30.375 91.6875 29 91 C29 90.34 29 89.68 29 89 C28.34 89 27.68 89 27 89 C25.23588412 87.03987125 23.6126221 85.08023881 22 83 C21.17822266 81.95585937 21.17822266 81.95585937 20.33984375 80.890625 C16 75.26832151 16 75.26832151 16 73 C15.34 73 14.68 73 14 73 C12.55015333 70.04756844 11.11754077 67.08706895 9.6875 64.125 C9.28337891 63.30257812 8.87925781 62.48015625 8.46289062 61.6328125 C4.28065377 52.92831953 1.76563493 44.21946797 0.3125 34.6875 C0.18584961 33.86499756 0.05919922 33.04249512 -0.07128906 32.19506836 C-1.64099342 21.36474292 -1.0954963 10.85715078 0 0 Z " fill="#DB9396" transform="translate(45,125)"/>
<path d="M0 0 C3.19506344 4.08614898 3.95498365 8.55244989 4.6875 13.5625 C4.8127002 14.41875977 4.93790039 15.27501953 5.06689453 16.15722656 C8.62709399 43.6216224 6.82829746 73.0272991 -9.7734375 96.19921875 C-26.35251799 117.05395683 -26.35251799 117.05395683 -35.0625 120.9140625 C-37 121 -37 121 -38.75390625 119.85546875 C-39.35074219 119.30503906 -39.94757813 118.75460938 -40.5625 118.1875 C-49.20775624 111.42848148 -59.53912124 112.9319918 -69.91479492 113.62915039 C-71.24281128 113.71797485 -71.24281128 113.71797485 -72.59765625 113.80859375 C-73.79660522 113.89838501 -73.79660522 113.89838501 -75.01977539 113.98999023 C-77 114 -77 114 -79 113 C-79 112.01 -79 111.02 -79 110 C-78.28714844 109.6596875 -77.57429687 109.319375 -76.83984375 108.96875 C-69.46836155 105.23836331 -63.14854988 101.39195469 -59.98046875 93.44140625 C-59.47694358 91.7720839 -59.01351935 90.08972133 -58.60546875 88.39453125 C-58 86 -58 86 -57.01171875 83.55859375 C-55.9255936 80.81182937 -55.27267608 78.13025362 -54.625 75.25 C-50.97265631 60.38623313 -41.93393684 43.71634874 -29 35 C-25.8125 34.0625 -25.8125 34.0625 -23 34 C-20 36 -20 36 -19.34765625 37.77734375 C-17.82157432 49.33793698 -24.50915858 59.29848525 -30 69 C-27.03 68.01 -27.03 68.01 -24 67 C-23.896875 66.236875 -23.79375 65.47375 -23.6875 64.6875 C-22.91325322 61.66089895 -22.14164574 61.14164574 -20 59 C-14.65108587 48.08821518 -14.65792826 37.68343156 -14.609375 25.70898438 C-14.46972734 18.22619747 -13.76920522 12.51879677 -10 6 C-9.46375 5.01 -8.9275 4.02 -8.375 3 C-6.11724065 -0.2840136 -3.83470484 -0.56117632 0 0 Z " fill="#B8C3B2" transform="translate(238,102)"/>
<path d="M0 0 C3.75146416 0.12660359 5.05382935 1.04801781 7.89453125 3.58203125 C8.87881888 4.64823275 9.85125194 5.72548117 10.8125 6.8125 C11.31458984 7.34681641 11.81667969 7.88113281 12.33398438 8.43164062 C15.20027306 11.60210689 16 12.57419946 16 17 C15.15695313 17.33773437 14.31390625 17.67546875 13.4453125 18.0234375 C12.34960938 18.46945313 11.25390625 18.91546875 10.125 19.375 C9.03445312 19.81585938 7.94390625 20.25671875 6.8203125 20.7109375 C3.93670638 21.83051338 3.93670638 21.83051338 2 24 C-0.625 24.125 -0.625 24.125 -3 24 C-3.20086443 20.28400809 -3.1519437 19.22791555 -1 16 C-3.64 16 -6.28 16 -9 16 C-9 16.66 -9 17.32 -9 18 C-9.72445312 18.24234375 -10.44890625 18.4846875 -11.1953125 18.734375 C-22.3667685 22.60714641 -30.6635513 28.1803961 -36 39 C-39.68093196 49.06023635 -39.67201139 56.29318692 -36.66796875 66.43359375 C-35.90719828 69.35655398 -35.75607276 71.99156402 -36 75 C-35.11054688 75.37511719 -35.11054688 75.37511719 -34.203125 75.7578125 C-31.70523125 77.1661994 -30.50225412 78.62088669 -28.75 80.875 C-24.2844175 86.12134532 -19.97114934 88.40577013 -13.25 89.75 C-11.83519554 89.8605316 -10.41788526 89.94092145 -9 90 C-7.63875 90.07734375 -7.63875 90.07734375 -6.25 90.15625 C1.2744603 90.39138938 7.80128981 89.09239619 15 87 C16.33175184 86.66040328 17.66447292 86.32443229 19 86 C19 85.34 19 84.68 19 84 C19.99 83.67 20.98 83.34 22 83 C22.515625 82.484375 23.03125 81.96875 23.5625 81.4375 C24.036875 80.963125 24.51125 80.48875 25 80 C25.66 80 26.32 80 27 80 C27.226875 79.0925 27.45375 78.185 27.6875 77.25 C29 74 29 74 31.375 72.25 C35.24761332 68.93061715 36.38020518 64.74174573 38 60 C38.33 60 38.66 60 39 60 C38.45788413 65.7696618 37.31196206 70.72016006 35.25 76.125 C35.01023437 76.80175781 34.77046875 77.47851562 34.5234375 78.17578125 C30.68635779 88.40140088 22.92827426 93.84436338 13.25 98.3125 C2.49318877 103.03354493 -10.29037892 101.94453382 -21.1953125 98.2578125 C-32.85503069 93.66705238 -41.09006423 85.04329645 -46.50390625 73.90625 C-52.82675648 59.35108479 -51.10972657 47.78767687 -47 33 C-46.34 33 -45.68 33 -45 33 C-44.731875 32.0925 -44.46375 31.185 -44.1875 30.25 C-43.09868368 27.27008166 -42.13608899 25.31409641 -40 23 C-39.34 23 -38.68 23 -38 23 C-38 22.34 -38 21.68 -38 21 C-37.34 21 -36.68 21 -36 21 C-36 20.34 -36 19.68 -36 19 C-25.29426372 10.59278737 -14.42246404 7.42678741 -1 7 C-1.020625 6.030625 -1.04125 5.06125 -1.0625 4.0625 C-1 1 -1 1 0 0 Z " fill="#D89295" transform="translate(185,38)"/>
<path d="M0 0 C4.77724216 3.81985962 7.81593749 9.02048432 9 15 C9.9372266 25.3875948 8.72775228 33.68924718 2 42 C-0.6875 43.25 -0.6875 43.25 -3 44 C-3.495 44.99 -3.495 44.99 -4 46 C-12.69322939 48.89774313 -21.59719033 48.93611789 -30 45 C-36.29418558 39.17703687 -39.34329524 32.26780356 -40.0234375 23.81640625 C-39.95825164 15.98323815 -37.78782145 8.66865242 -32.74609375 2.62109375 C-23.41672892 -6.04039708 -10.76948057 -5.58234543 0 0 Z M-24 7 C-26.60284633 12.08594913 -27.47397888 16.25922479 -27.375 22 C-27.38660156 22.67289063 -27.39820313 23.34578125 -27.41015625 24.0390625 C-27.37508328 30.09499524 -25.67995957 34.37926307 -22.4375 39.4375 C-18.47805769 41.97560405 -14.54353333 41.94994457 -10 41 C-4.26358503 36.33916283 -3.47923727 30.62279646 -2.74609375 23.55078125 C-2.43588408 17.17647296 -3.71828658 11.5201661 -7 6 C-9.87375035 3.3336337 -10.88019268 3.01331192 -14.9375 2.5625 C-19.09180947 2.74782236 -21.16911065 3.84558044 -24 7 Z " fill="#DC989C" transform="translate(350,118)"/>
<path d="M0 0 C3.64578762 2.86454742 5.65211542 6.17842937 6.3894043 10.74072266 C6.40398682 11.89878418 6.41856934 13.0568457 6.43359375 14.25 C6.46130859 15.52101562 6.48902344 16.79203125 6.51757812 18.1015625 C6.52724609 19.41640625 6.53691406 20.73125 6.546875 22.0859375 C6.58529099 24.7033048 6.63438816 27.32029446 6.68359375 29.9375 C6.70039185 31.6712085 6.70039185 31.6712085 6.7175293 33.43994141 C6.83743709 35.99370916 6.93567875 38.08413052 7.859375 40.4609375 C10.34971886 41.75754184 10.34971886 41.75754184 12.859375 42.4609375 C12.529375 44.1109375 12.199375 45.7609375 11.859375 47.4609375 C6.42190506 49.14842817 3.19739977 50.06787983 -2.140625 47.4609375 C-4.015625 45.8359375 -4.015625 45.8359375 -5.140625 44.4609375 C-5.965625 45.1003125 -6.790625 45.7396875 -7.640625 46.3984375 C-12.0624338 49.29798425 -16.37056697 49.93554382 -21.51171875 49.0546875 C-25.64542266 47.91435539 -27.74494884 46.90607318 -30.640625 43.6484375 C-32.8955315 38.85676119 -33.68138885 35.49922713 -32.140625 30.3984375 C-30.21640341 25.87694819 -27.49786317 23.61105129 -23.140625 21.4609375 C-17.43363987 19.18913604 -12.27005243 18.06119223 -6.140625 18.4609375 C-5.57851186 13.14027991 -5.57851186 13.14027991 -7.640625 8.5859375 C-8.135625 8.2146875 -8.630625 7.8434375 -9.140625 7.4609375 C-9.140625 6.8009375 -9.140625 6.1409375 -9.140625 5.4609375 C-10.95388051 5.57445267 -12.76625857 5.70206711 -14.578125 5.8359375 C-15.58746094 5.90554687 -16.59679687 5.97515625 -17.63671875 6.046875 C-18.46300781 6.18351562 -19.28929687 6.32015625 -20.140625 6.4609375 C-20.470625 7.1209375 -20.800625 7.7809375 -21.140625 8.4609375 C-24.203125 9.0859375 -24.203125 9.0859375 -27.140625 9.4609375 C-27.470625 7.1509375 -27.800625 4.8409375 -28.140625 2.4609375 C-26.55862869 1.81183596 -24.97496776 1.16679056 -23.390625 0.5234375 C-22.50890625 0.16378906 -21.6271875 -0.19585937 -20.71875 -0.56640625 C-13.29733789 -3.36630264 -7.13512379 -3.44962597 0 0 Z M-13.765625 25.8359375 C-14.54164063 26.09117187 -15.31765625 26.34640625 -16.1171875 26.609375 C-18.31639796 27.38507263 -18.31639796 27.38507263 -20.140625 29.4609375 C-20.459009 31.6008007 -20.459009 31.6008007 -20.390625 33.9609375 C-20.39578125 34.755 -20.4009375 35.5490625 -20.40625 36.3671875 C-20.33002409 38.67986501 -20.33002409 38.67986501 -18.140625 40.4609375 C-16.07230802 40.8553963 -16.07230802 40.8553963 -13.765625 40.8359375 C-12.99476563 40.86429688 -12.22390625 40.89265625 -11.4296875 40.921875 C-8.19729014 40.2709827 -7.07083026 39.10732752 -5.140625 36.4609375 C-4.65867225 33.41653615 -4.65867225 33.41653615 -4.890625 30.2109375 C-4.92671875 29.13328125 -4.9628125 28.055625 -5 26.9453125 C-5.04640625 26.12546875 -5.0928125 25.305625 -5.140625 24.4609375 C-8.63757566 24.4609375 -10.55433746 24.7511882 -13.765625 25.8359375 Z " fill="#DEA4A6" transform="translate(437.140625,116.5390625)"/>
<path d="M0 0 C3.26609863 5.11287488 3.46724877 9.46232579 3.51171875 15.3359375 C3.52966995 16.21528961 3.54762115 17.09464172 3.56611633 18.00064087 C3.62002812 20.79204605 3.65405329 23.58328211 3.6875 26.375 C3.72069 28.27476302 3.75518121 30.17450377 3.79101562 32.07421875 C3.87574349 36.71602344 3.94264561 41.35777965 4 46 C2.37509046 46.02698189 0.75005367 46.04638757 -0.875 46.0625 C-1.77992188 46.07410156 -2.68484375 46.08570313 -3.6171875 46.09765625 C-6 46 -6 46 -8 45 C-8.93209758 40.33259961 -9.09235224 35.85916601 -8.9921875 31.11328125 C-8.97542969 29.84548828 -8.95867187 28.57769531 -8.94140625 27.27148438 C-8.89693653 24.62030407 -8.84478491 21.96924206 -8.78515625 19.31835938 C-8.77097656 18.05443359 -8.75679688 16.79050781 -8.7421875 15.48828125 C-8.7201123 14.33884033 -8.69803711 13.18939941 -8.67529297 12.00512695 C-9.03528121 8.67347641 -9.59255296 7.3037555 -12 5 C-15.84508737 4.50156275 -18.26216637 4.67207394 -21.8125 6.25 C-24.23810525 8.1904842 -24.93286021 9.1112344 -26 12 C-26.15617713 14.56437439 -26.20951495 17.01434312 -26.16015625 19.57421875 C-26.15495468 20.29865677 -26.14975311 21.02309479 -26.14439392 21.76948547 C-26.12662573 24.07569727 -26.09544001 26.38145894 -26.0625 28.6875 C-26.03491158 31.00420756 -26.0102234 33.32085448 -25.99131775 35.63764954 C-25.97902663 37.07780073 -25.96139018 38.51791777 -25.93800354 39.95793152 C-25.92105629 41.63866262 -25.95537342 43.319776 -26 45 C-27.58894072 46.58894072 -29.24801424 46.16998411 -31.4375 46.1875 C-32.24058594 46.20167969 -33.04367187 46.21585938 -33.87109375 46.23046875 C-36 46 -36 46 -38 44 C-38.21118164 41.18115234 -38.21118164 41.18115234 -38.16015625 37.5859375 C-38.14855469 36.27375244 -38.13695312 34.96156738 -38.125 33.60961914 C-38.10953125 32.57032761 -38.10953125 32.57032761 -38.09375 31.51004028 C-38.04195992 27.97167552 -38.02194014 24.43320715 -38.00390625 20.89453125 C-37.99996857 20.20433395 -37.99603088 19.51413666 -37.99197388 18.80302429 C-37.96645847 11.50085453 -38.34010456 4.27063364 -39 -3 C-35.52674819 -4.1577506 -32.63932552 -4.06866652 -29 -4 C-28.34 -2.35 -27.68 -0.7 -27 1 C-26.48050781 0.65066406 -25.96101563 0.30132812 -25.42578125 -0.05859375 C-16.842657 -5.65904266 -8.34074837 -7.17692302 0 0 Z " fill="#D79195" transform="translate(495,119)"/>
<path d="M0 0 C-0.33 2.64 -0.66 5.28 -1 8 C-3.41797494 7.53200485 -5.81408129 7.04929162 -8.1953125 6.41796875 C-8.97648437 6.21816406 -9.75765625 6.01835938 -10.5625 5.8125 C-11.67818359 5.51279297 -11.67818359 5.51279297 -12.81640625 5.20703125 C-15.47717901 4.95475762 -16.75108897 5.62821527 -19 7 C-19.67012422 9.7859186 -19.67012422 9.7859186 -19 13 C-15.96819552 15.83299762 -12.15377088 17.49716254 -8.3828125 19.140625 C-3.0821457 21.49997224 0.31933365 23.32989475 2.50390625 28.890625 C3.36375465 32.54667332 3.35294816 35.47392268 2 39 C0.27494161 41.6350892 -1.59440196 43.95811307 -4 46 C-4.66 46 -5.32 46 -6 46 C-6.33 46.66 -6.66 47.32 -7 48 C-15.70754199 50.12379073 -22.71397944 48.85256446 -31 46 C-31.25 40.375 -31.25 40.375 -29 37 C-28.195625 37.433125 -28.195625 37.433125 -27.375 37.875 C-22.15885318 40.34580639 -17.80934092 41.43844082 -12 41 C-11.01 40.34 -10.02 39.68 -9 39 C-8.74339906 35.92078868 -8.60568496 33.78863007 -10 31 C-12.02463255 30.34786708 -12.02463255 30.34786708 -14 30 C-14 29.34 -14 28.68 -14 28 C-16.31 27.67 -18.62 27.34 -21 27 C-21 26.34 -21 25.68 -21 25 C-21.763125 24.896875 -22.52625 24.79375 -23.3125 24.6875 C-26.27544506 23.92953731 -27.19104648 23.41193803 -29 21 C-31.24663987 16.86145287 -31.72683696 12.62450013 -31 8 C-28.58172489 3.16344977 -25.68446404 0.63501102 -21 -2 C-13.49631848 -4.30295916 -7.0444707 -3.07395085 0 0 Z " fill="#DB9CA0" transform="translate(397,117)"/>
<path d="M0 0 C3.63 0 7.26 0 11 0 C11.07422264 7.72296044 11.12863747 15.44571267 11.16479492 23.16894531 C11.1798702 25.79560971 11.20033366 28.42224899 11.22631836 31.04882812 C11.26275576 34.82688604 11.27973938 38.60461077 11.29296875 42.3828125 C11.30845261 43.55490265 11.32393646 44.7269928 11.33988953 45.93460083 C11.3410808 51.72129233 11.30986306 56.02590098 8 61 C7.34 62.0725 6.68 63.145 6 64.25 C2.93931448 67.76377793 -0.73170118 68.28424232 -5.203125 68.89453125 C-9.87645765 69.07076027 -13.7940292 68.1029854 -18 66 C-17.67 63.69 -17.34 61.38 -17 59 C-13.25 57.875 -13.25 57.875 -11 59 C-9.62657169 59.0689472 -8.24997898 59.08467708 -6.875 59.0625 C-5.59625 59.041875 -4.3175 59.02125 -3 59 C-1.22168546 55.17761047 -0.77114201 52.24787107 -0.83984375 48.046875 C-0.85144531 46.88115967 -0.86304688 45.71544434 -0.875 44.5144043 C-0.895625 43.27215088 -0.91625 42.02989746 -0.9375 40.75 C-1.0613709 27.13538343 -0.66848354 13.59647768 0 0 Z " fill="#DC9EA1" transform="translate(289,98)"/>
<path d="M0 0 C3.41288564 0.29253305 4.93538628 0.94768253 7.63378906 3.13256836 C10.49714054 6.60244694 10.63617717 8.24794999 10.671875 12.69140625 C10.69636719 13.96564453 10.72085937 15.23988281 10.74609375 16.55273438 C10.74838383 17.88932159 10.7496761 19.22591086 10.75 20.5625 C10.77856575 23.18896233 10.81948134 25.81507386 10.859375 28.44140625 C10.86420898 29.60357666 10.86904297 30.76574707 10.87402344 31.96313477 C10.98052012 34.53040644 11.06805223 36.61319373 12 39 C14.49034386 40.29660434 14.49034386 40.29660434 17 41 C16.67 42.65 16.34 44.3 16 46 C10.59483367 47.67746541 7.29912409 48.64956205 2 46 C1.34 45.01 0.68 44.02 0 43 C-2.58380177 42.74969023 -2.58380177 42.74969023 -5 43 C-3.51153846 38.28653846 -3.51153846 38.28653846 -0.921875 36.8359375 C-0.28765625 36.56007812 0.3465625 36.28421875 1 36 C1.53847647 21.34808191 1.53847647 21.34808191 -0.5625 6.9453125 C-1.13218556 4.41224633 -0.62292771 2.49171082 0 0 Z M-2 1 C0 2 0 2 0 2 Z " fill="#D58D91" transform="translate(433,118)"/>
<path d="M0 0 C2.31 0 4.62 0 7 0 C8 1 8 1 8.0625 4.5625 C8.041875 5.696875 8.02125 6.83125 8 8 C8.66 8 9.32 8 10 8 C9.67 20.54 9.34 33.08 9 46 C6.36 46 3.72 46 1 46 C0.67 30.82 0.34 15.64 0 0 Z " fill="#D78E93" transform="translate(458,117)"/>
<path d="M0 0 C4.21093732 1.41123305 7.00802397 3.42789693 10.3125 6.375 C11.19550781 7.14585938 12.07851562 7.91671875 12.98828125 8.7109375 C15 11 15 11 15 15 C14.15695313 15.33773437 13.31390625 15.67546875 12.4453125 16.0234375 C11.34960938 16.46945313 10.25390625 16.91546875 9.125 17.375 C8.03445312 17.81585938 6.94390625 18.25671875 5.8203125 18.7109375 C2.93670638 19.83051338 2.93670638 19.83051338 1 22 C-1.625 22.125 -1.625 22.125 -4 22 C-4.20086443 18.28400809 -4.1519437 17.22791555 -2 14 C-4.64 14 -7.28 14 -10 14 C-10 14.66 -10 15.32 -10 16 C-14.95 16.495 -14.95 16.495 -20 17 C-20.33 15.35 -20.66 13.7 -21 12 C-20.360625 11.87625 -19.72125 11.7525 -19.0625 11.625 C-18.381875 11.41875 -17.70125 11.2125 -17 11 C-16.67 10.34 -16.34 9.68 -16 9 C-10.98657863 6.74396038 -6.37550458 6.78497982 -1 7 C-1.020625 6.030625 -1.04125 5.06125 -1.0625 4.0625 C-1 1 -1 1 0 0 Z " fill="#D89699" transform="translate(186,40)"/>
<path d="M0 0 C0.99 0 1.98 0 3 0 C3 0.66 3 1.32 3 2 C3.99 2.33 4.98 2.66 6 3 C6 3.99 6 4.98 6 6 C7.32 6.66 8.64 7.32 10 8 C10 8.66 10 9.32 10 10 C10.99 10.33 11.98 10.66 13 11 C15.0979047 17.2937141 14.94400601 25.20182124 12.8125 31.5 C10.87366867 35.24395016 9.14921756 37.27635238 6 40 C6 39.34 6 38.68 6 38 C5.01 38 4.02 38 3 38 C2.14735528 35.07022954 1.91111386 32.56003115 2.0078125 29.515625 C2.02457031 28.66226563 2.04132813 27.80890625 2.05859375 26.9296875 C2.10248288 25.15863213 2.15442376 23.38775599 2.21484375 21.6171875 C2.31354616 15.64120511 1.33862488 11.49516261 -1 6 C-1.25 3.0625 -1.25 3.0625 -1 1 C-0.67 0.67 -0.34 0.34 0 0 Z " fill="#D78C91" transform="translate(345,119)"/>
<path d="M0 0 C4.31687378 0.35001679 6.19275066 1.77686187 9 5 C8.67 5.66 8.34 6.32 8 7 C7.21625 6.34 6.4325 5.68 5.625 5 C3.28487188 2.79798559 3.28487188 2.79798559 1 3 C0.67 4.98 0.34 6.96 0 9 C-0.58007812 9.06058594 -1.16015625 9.12117188 -1.7578125 9.18359375 C-6.20092863 9.66016561 -10.59905423 10.21008666 -15 11 C-15.33 11.99 -15.66 12.98 -16 14 C-16.99 14 -17.98 14 -19 14 C-18.67 14.66 -18.34 15.32 -18 16 C-18.33 16.99 -18.66 17.98 -19 19 C-17.02 18.67 -15.04 18.34 -13 18 C-15.43182931 19.62121954 -17.79555405 20.96115204 -20.375 22.3125 C-24.22154002 24.43838354 -27.08252245 26.66573994 -30 30 C-30.680625 30.721875 -31.36125 31.44375 -32.0625 32.1875 C-37.2624868 39.73586793 -39.86861098 48.85063099 -39 58 C-38.13803683 62.36995284 -37.1049063 66.68560395 -36 71 C-38.81818157 69.59090922 -39.38069404 67.57052411 -40.390625 64.6953125 C-42.55000995 55.14418676 -41.68111066 44.08007296 -38 35 C-35.375 32.0625 -35.375 32.0625 -33 30 C-32.12761142 27.32209104 -32.12761142 27.32209104 -32 25 C-33.98 24.67 -35.96 24.34 -38 24 C-38.33 24.99 -38.66 25.98 -39 27 C-40.375 28.5 -40.375 28.5 -42 30 C-42.556875 30.556875 -43.11375 31.11375 -43.6875 31.6875 C-44.120625 32.120625 -44.55375 32.55375 -45 33 C-43.85569823 29.12697862 -42.76679902 25.99736561 -40 23 C-39.34 23 -38.68 23 -38 23 C-38 22.34 -38 21.68 -38 21 C-37.34 21 -36.68 21 -36 21 C-36 20.34 -36 19.68 -36 19 C-25.29426372 10.59278737 -14.42246404 7.42678741 -1 7 C-1.020625 6.030625 -1.04125 5.06125 -1.0625 4.0625 C-1 1 -1 1 0 0 Z " fill="#DDA3A5" transform="translate(185,38)"/>
<path d="M0 0 C1.9960826 1.51814733 2.71056664 2.97338242 3.6640625 5.265625 C2.766875 4.523125 2.766875 4.523125 1.8515625 3.765625 C-0.30623744 1.98286082 -0.30623744 1.98286082 -3.3359375 2.265625 C-3.71656971 4.5917107 -4.04863695 6.92617764 -4.3359375 9.265625 C-4.0059375 9.595625 -3.6759375 9.925625 -3.3359375 10.265625 C-3.26413786 11.78490538 -3.25201743 13.30729982 -3.2734375 14.828125 C-3.28246094 15.65441406 -3.29148437 16.48070312 -3.30078125 17.33203125 C-3.31238281 17.97011719 -3.32398438 18.60820312 -3.3359375 19.265625 C-2.6759375 19.595625 -2.0159375 19.925625 -1.3359375 20.265625 C-1.9959375 20.265625 -2.6559375 20.265625 -3.3359375 20.265625 C-3.3359375 25.875625 -3.3359375 31.485625 -3.3359375 37.265625 C-4.8209375 37.760625 -4.8209375 37.760625 -6.3359375 38.265625 C-6.0059375 33.645625 -5.6759375 29.025625 -5.3359375 24.265625 C-9.9559375 25.585625 -14.5759375 26.905625 -19.3359375 28.265625 C-19.3359375 27.605625 -19.3359375 26.945625 -19.3359375 26.265625 C-18.6759375 26.265625 -18.0159375 26.265625 -17.3359375 26.265625 C-17.3359375 25.605625 -17.3359375 24.945625 -17.3359375 24.265625 C-16.0984375 23.935625 -14.8609375 23.605625 -13.5859375 23.265625 C-12.88984375 23.08 -12.19375 22.894375 -11.4765625 22.703125 C-9.3359375 22.265625 -9.3359375 22.265625 -5.3359375 22.265625 C-5.3359375 21.605625 -5.3359375 20.945625 -5.3359375 20.265625 C-5.965 20.41 -6.5940625 20.554375 -7.2421875 20.703125 C-12.74160369 21.89576947 -17.71260693 22.4738965 -23.3359375 22.265625 C-17.9372413 18.6664942 -12.7359302 18.00440081 -6.3359375 18.265625 C-5.77382436 12.94496741 -5.77382436 12.94496741 -7.8359375 8.390625 C-8.3309375 8.019375 -8.8259375 7.648125 -9.3359375 7.265625 C-9.3359375 6.605625 -9.3359375 5.945625 -9.3359375 5.265625 C-11.14919301 5.37914017 -12.96157107 5.50675461 -14.7734375 5.640625 C-15.78277344 5.71023437 -16.79210937 5.77984375 -17.83203125 5.8515625 C-18.65832031 5.98820312 -19.48460937 6.12484375 -20.3359375 6.265625 C-20.6659375 6.925625 -20.9959375 7.585625 -21.3359375 8.265625 C-24.3984375 8.890625 -24.3984375 8.890625 -27.3359375 9.265625 C-27.6659375 6.955625 -27.9959375 4.645625 -28.3359375 2.265625 C-26.75394119 1.61652346 -25.17028026 0.97147806 -23.5859375 0.328125 C-22.70421875 -0.03152344 -21.8225 -0.39117187 -20.9140625 -0.76171875 C-13.34738587 -3.61641948 -7.21464515 -3.62169438 0 0 Z " fill="#E5BEC1" transform="translate(437.3359375,116.734375)"/>
<path d="M0 0 C-0.33 2.64 -0.66 5.28 -1 8 C-3.41797494 7.53200485 -5.81408129 7.04929162 -8.1953125 6.41796875 C-8.97648437 6.21816406 -9.75765625 6.01835938 -10.5625 5.8125 C-11.67818359 5.51279297 -11.67818359 5.51279297 -12.81640625 5.20703125 C-15.54023387 4.94877926 -16.77591826 5.4338144 -19 7 C-19.81584568 10.05908413 -19.81584568 10.05908413 -20 13 C-20.66 12.67 -21.32 12.34 -22 12 C-22 10.35 -22 8.7 -22 7 C-23.32 7 -24.64 7 -26 7 C-27.21977329 9.43954658 -27.20153813 11.15305849 -27.25 13.875 C-27.27578125 14.73867187 -27.3015625 15.60234375 -27.328125 16.4921875 C-26.9324883 19.51598226 -26.0558542 20.78083028 -24 23 C-23.01 23.66 -22.02 24.32 -21 25 C-23.63247289 24.64426042 -25.53051446 24.34776706 -27.6875 22.75 C-30.66266494 18.78311342 -31.46216616 14.95532689 -31.3125 9.98828125 C-30.56031741 5.20251949 -27.68680414 2.52941153 -24 -0.3125 C-16.00863303 -4.80764392 -8.09820013 -3.53376006 0 0 Z " fill="#E9C7C9" transform="translate(397,117)"/>
<path d="M0 0 C3.74660418 3.15387969 6.04521098 6.16240232 7 11 C5 11 5 11 2.9375 9.1875 C1 7 1 7 0 4 C-0.66 3.67 -1.32 3.34 -2 3 C-2 2.34 -2 1.68 -2 1 C-2.99 1.33 -3.98 1.66 -5 2 C-5 4.64 -5 7.28 -5 10 C-5.928125 8.7934375 -5.928125 8.7934375 -6.875 7.5625 C-8.74164041 4.96125481 -8.74164041 4.96125481 -11 4 C-16.4157076 3.64487163 -19.51066735 3.63300051 -24 7 C-24 5.35 -24 3.7 -24 2 C-27.63435292 2.24779679 -29.49701597 2.52575792 -32.1875 5.0625 C-37.19577274 13.17935581 -37.89710699 20.53959899 -37 30 C-36.35027497 31.34167046 -35.68765192 32.67736737 -35 34 C-35.33 34.99 -35.66 35.98 -36 37 C-40.33603063 29.8361233 -40.65542729 22.92587817 -38.9375 14.875 C-37.13250767 8.54939625 -34.57497644 3.36265302 -28.97265625 -0.33984375 C-19.17804585 -5.46514268 -9.79925395 -5.12369528 0 0 Z " fill="#E7BFC1" transform="translate(350,118)"/>
<path d="M0 0 C0 0.66 0 1.32 0 2 C-2.413706 1.58384379 -3.68469065 1.3557572 -5.33984375 -0.51171875 C-8.09531322 -2.98191608 -10.86006326 -2.52087828 -14.4140625 -2.4375 C-18.58509607 -1.73182665 -20.84258953 0.25442568 -24 3 C-23.34 3.33 -22.68 3.66 -22 4 C-21.34 3.67 -20.68 3.34 -20 3 C-17.3276379 2.86584528 -14.67749512 2.95681459 -12 3 C-12 3.33 -12 3.66 -12 4 C-12.90492188 4.14695312 -12.90492188 4.14695312 -13.828125 4.296875 C-18.69216041 5.20692033 -21.89087142 5.85449523 -25 10 C-26.50273288 13.00546576 -26.10106848 16.08656735 -26.0625 19.37890625 C-26.05871338 20.10617416 -26.05492676 20.83344208 -26.05102539 21.58274841 C-26.03878918 23.90939179 -26.020154 26.23591252 -26 28.5625 C-25.97352 31.62629858 -25.95347347 34.69003694 -25.9375 37.75390625 C-25.92920166 38.46430557 -25.92090332 39.1747049 -25.91235352 39.90663147 C-25.90377918 41.60465068 -25.94672511 43.30279508 -26 45 C-27.58894072 46.58894072 -29.24801424 46.16998411 -31.4375 46.1875 C-32.24058594 46.20167969 -33.04367187 46.21585938 -33.87109375 46.23046875 C-36 46 -36 46 -38 44 C-38.21118164 41.18115234 -38.21118164 41.18115234 -38.16015625 37.5859375 C-38.14855469 36.27375244 -38.13695312 34.96156738 -38.125 33.60961914 C-38.10953125 32.57032761 -38.10953125 32.57032761 -38.09375 31.51004028 C-38.04195992 27.97167552 -38.02194014 24.43320715 -38.00390625 20.89453125 C-37.99996857 20.20433395 -37.99603088 19.51413666 -37.99197388 18.80302429 C-37.96645847 11.50085453 -38.34010456 4.27063364 -39 -3 C-35.52674819 -4.1577506 -32.63932552 -4.06866652 -29 -4 C-28.34 -2.35 -27.68 -0.7 -27 1 C-26.48050781 0.65066406 -25.96101563 0.30132812 -25.42578125 -0.05859375 C-16.70554568 -5.74850716 -8.4091244 -6.93752763 0 0 Z M-37 -2 C-36.67 13.18 -36.34 28.36 -36 44 C-33.36 44 -30.72 44 -28 44 C-27.98018066 43.00145996 -27.96036133 42.00291992 -27.93994141 40.97412109 C-27.86355736 37.25024268 -27.774892 33.52673839 -27.68261719 29.80322266 C-27.64446241 28.19522518 -27.60958652 26.58714627 -27.578125 24.97900391 C-27.5321794 22.66018684 -27.47423619 20.3419238 -27.4140625 18.0234375 C-27.39673569 16.95432632 -27.39673569 16.95432632 -27.37905884 15.86361694 C-27.25352521 11.56588751 -26.56115961 8.00423744 -25 4 C-26.32 4.33 -27.64 4.66 -29 5 C-28.9690625 3.5459375 -28.9690625 3.5459375 -28.9375 2.0625 C-28.64381501 -0.87465895 -28.64381501 -0.87465895 -30 -2 C-32.31 -2 -34.62 -2 -37 -2 Z " fill="#EDD2D3" transform="translate(495,119)"/>
<path d="M0 0 C1.32 0 2.64 0 4 0 C5.17426264 2.34852528 5.11508173 3.73774065 5.09765625 6.3515625 C5.09443359 7.20234375 5.09121094 8.053125 5.08789062 8.9296875 C5.07951172 9.81914063 5.07113281 10.70859375 5.0625 11.625 C5.05798828 12.5221875 5.05347656 13.419375 5.04882812 14.34375 C5.03702591 16.56256648 5.02056155 18.78125018 5 21 C6.2065625 20.9690625 6.2065625 20.9690625 7.4375 20.9375 C10 21 10 21 11 22 C12.51165654 22.39148761 14.03469632 22.73972457 15.5625 23.0625 C16.38878906 23.23910156 17.21507812 23.41570312 18.06640625 23.59765625 C18.70449219 23.73042969 19.34257812 23.86320312 20 24 C20 25.32 20 26.64 20 28 C16.6871348 27.86179731 13.37482011 27.71316222 10.0625 27.5625 C9.11697266 27.52318359 8.17144531 27.48386719 7.19726562 27.44335938 C6.29814453 27.40146484 5.39902344 27.35957031 4.47265625 27.31640625 C3.64000244 27.27974854 2.80734863 27.24309082 1.94946289 27.20532227 C0 27 0 27 -1 26 C-1.09959621 24.15840977 -1.13080411 22.31303033 -1.1328125 20.46875 C-1.13410156 19.34855469 -1.13539063 18.22835937 -1.13671875 17.07421875 C-1.13285156 15.89472656 -1.12898437 14.71523437 -1.125 13.5 C-1.12886719 12.32050781 -1.13273438 11.14101562 -1.13671875 9.92578125 C-1.13542969 8.80558594 -1.13414062 7.68539062 -1.1328125 6.53125 C-1.13168457 5.49548828 -1.13055664 4.45972656 -1.12939453 3.39257812 C-1 1 -1 1 0 0 Z " fill="#D19293" transform="translate(180,72)"/>
<path d="M0 0 C1.32 0.33 2.64 0.66 4 1 C4.06058594 1.76828125 4.12117188 2.5365625 4.18359375 3.328125 C4.74222664 6.18068442 4.74222664 6.18068442 7.28515625 7.484375 C8.20167969 7.90203125 9.11820312 8.3196875 10.0625 8.75 C12.80859375 10.2421875 12.80859375 10.2421875 15 12 C15.87336016 15.15236509 15.63690057 17.81549713 15 21 C11.71901725 20.47080923 8.55414537 19.64176223 5.375 18.6875 C4.61960937 18.46449219 3.86421875 18.24148437 3.0859375 18.01171875 C0.44889821 16.73270531 -0.5641516 15.54761817 -2 13 C-2.36328125 10.52734375 -2.36328125 10.52734375 -2.3125 7.9375 C-2.30863281 7.08027344 -2.30476563 6.22304687 -2.30078125 5.33984375 C-2 3 -2 3 0 0 Z " fill="#DA9195" transform="translate(371,123)"/>
<path d="M0 0 C1.3740367 2.74807341 0.6927017 4.23175933 0.08984375 7.23046875 C-1.37792391 15.47235942 -1.38606993 23.66665026 -1.47851562 32.01757812 C-1.62195918 38.45854379 -1.90044015 43.31491621 -5 49 C-5.31582031 49.721875 -5.63164062 50.44375 -5.95703125 51.1875 C-8.24107862 56.02676017 -11.0218823 60.36286381 -15 64 C-15.66 64 -16.32 64 -17 64 C-16.67 63.01 -16.34 62.02 -16 61 C-15.34 61 -14.68 61 -14 61 C-13.896875 60.236875 -13.79375 59.47375 -13.6875 58.6875 C-12.91325322 55.66089895 -12.14164574 55.14164574 -10 53 C-4.65108587 42.08821518 -4.65792826 31.68343156 -4.609375 19.70898438 C-4.47043227 12.26396975 -3.79918822 6.48819579 0 0 Z " fill="#E1E3DC" transform="translate(228,108)"/>
<path d="M0 0 C2 1 2 1 2.61889648 2.70996094 C3.06517575 5.39163906 3.11212024 7.92139473 3.09765625 10.640625 C3.09443359 11.71054688 3.09121094 12.78046875 3.08789062 13.8828125 C3.07951172 14.99398437 3.07113281 16.10515625 3.0625 17.25 C3.05798828 18.37664062 3.05347656 19.50328125 3.04882812 20.6640625 C3.03705397 23.44276217 3.0206084 26.22135409 3 29 C3.99 29 4.98 29 6 29 C6.33 29.99 6.66 30.98 7 32 C6.195625 32.28875 5.39125 32.5775 4.5625 32.875 C1.8673532 33.73262568 1.8673532 33.73262568 1 36 C-5.71726609 38.2390887 -12.06667782 38.68080538 -19 37 C-19 36.67 -19 36.34 -19 36 C-18.04738281 35.93941406 -17.09476562 35.87882812 -16.11328125 35.81640625 C-14.85902344 35.73261719 -13.60476563 35.64882812 -12.3125 35.5625 C-11.07113281 35.48128906 -9.82976562 35.40007812 -8.55078125 35.31640625 C-5.61819663 35.05508683 -2.86558383 34.65201621 0 34 C0.33 32.35 0.66 30.7 1 29 C-2.12197478 30.3089572 -2.12197478 30.3089572 -4 33 C-5.58294782 33.05437607 -7.16644256 33.09296271 -8.75 33.125 C-10.07257813 33.15980469 -10.07257813 33.15980469 -11.421875 33.1953125 C-14.1135858 32.99139502 -15.69904974 32.36551721 -18 31 C-17.67 30.34 -17.34 29.68 -17 29 C-16.34 29.33 -15.68 29.66 -15 30 C-10.30241325 30.57287643 -6.34300921 31.04083214 -2.5 28.0625 C1.79454288 19.29447496 1.99061081 9.45540136 0 0 Z " fill="#E7C1C2" transform="translate(345,128)"/>
<path d="M0 0 C0 0.33 0 0.66 0 1 C-0.60360352 0.98952637 -1.20720703 0.97905273 -1.82910156 0.96826172 C-15.01525008 0.52640914 -15.01525008 0.52640914 -28.0625 2 C-33.58993626 3.11836047 -39.00364614 3.26165014 -44.625 3.3125 C-45.49648682 3.32990234 -46.36797363 3.34730469 -47.26586914 3.36523438 C-53.61386275 3.36043937 -59.02703057 2.11445998 -65 0 C-61.75195313 -1.08268229 -61.12524503 -0.86808268 -58 0 C-47.24514301 0.86458046 -36.68008737 0.03586008 -26.10693359 -1.91943359 C-16.42159462 -3.70271758 -9.27540548 -3.31546409 0 0 Z " fill="#E7C3C5" transform="translate(191,222)"/>
<path d="M0 0 C0.66 0.33 1.32 0.66 2 1 C2.88565586 3.65696758 3.1450262 5.28190083 3.20532227 8.01245117 C3.22526749 8.81305466 3.24521271 9.61365814 3.26576233 10.43852234 C3.28247482 11.29798965 3.29918732 12.15745697 3.31640625 13.04296875 C3.33718735 13.9265657 3.35796844 14.81016266 3.37937927 15.72053528 C3.44475754 18.54277785 3.50370528 21.36511335 3.5625 24.1875 C3.60569637 26.10092106 3.64931102 28.01433273 3.69335938 29.92773438 C3.80042695 34.61839437 3.90172752 39.30914783 4 44 C2.37509046 44.02698189 0.75005367 44.04638757 -0.875 44.0625 C-2.23238281 44.07990234 -2.23238281 44.07990234 -3.6171875 44.09765625 C-6 44 -6 44 -8 43 C-9.66166254 36.14439828 -8.88119449 29.04813675 -8.5625 22.0625 C-8.51029297 20.80630859 -8.45808594 19.55011719 -8.40429688 18.25585938 C-8.27524235 15.17028299 -8.1403033 12.08508195 -8 9 C-7.34 9 -6.68 9 -6 9 C-6 19.89 -6 30.78 -6 42 C-3.36 42 -0.72 42 2 42 C1.88111965 37.14348918 1.75683343 32.28715685 1.62768555 27.4309082 C1.58455714 25.78120619 1.54286799 24.13146585 1.50268555 22.48168945 C1.44444353 20.10095711 1.38090903 17.72041373 1.31640625 15.33984375 C1.29969376 14.61039047 1.28298126 13.88093719 1.26576233 13.12937927 C1.13897527 8.67838858 0.70886583 4.39698627 0 0 Z " fill="#EED4D5" transform="translate(495,121)"/>
<path d="M0 0 C0 0.66 0 1.32 0 2 C-4.1196377 3.29243536 -7.66831683 4.26252625 -12 4 C-12 4.66 -12 5.32 -12 6 C-12.66 6 -13.32 6 -14 6 C-14 6.99 -14 7.98 -14 9 C-14.97753644 10.02196992 -15.9805881 11.01979625 -17 12 C-17.33 12.70125 -17.66 13.4025 -18 14.125 C-19 16 -19 16 -22 17 C-23.19131862 13.27712932 -23.4161035 9.88363264 -23 6 C-17.70938169 -0.52509591 -7.75545941 -0.28723924 0 0 Z " fill="#D79197" transform="translate(432,137)"/>
<path d="M0 0 C0.33 0 0.66 0 1 0 C1 2.97 1 5.94 1 9 C1.66 9.33 2.32 9.66 3 10 C2.34 10 1.68 10 1 10 C1 15.61 1 21.22 1 27 C0.01 27.33 -0.98 27.66 -2 28 C-1.67 23.38 -1.34 18.76 -1 14 C-5.62 15.32 -10.24 16.64 -15 18 C-15 17.34 -15 16.68 -15 16 C-14.34 16 -13.68 16 -13 16 C-13 15.34 -13 14.68 -13 14 C-11.7625 13.67 -10.525 13.34 -9.25 13 C-8.20585937 12.7215625 -8.20585937 12.7215625 -7.140625 12.4375 C-5 12 -5 12 -1 12 C-1 11.34 -1 10.68 -1 10 C-1.6290625 10.144375 -2.258125 10.28875 -2.90625 10.4375 C-8.40566619 11.63014447 -13.37666943 12.2082715 -19 12 C-12.97784896 7.98523264 -7.00056891 7.71426249 0 8 C0 5.36 0 2.72 0 0 Z " fill="#DFB1B5" transform="translate(433,127)"/>
<path d="M0 0 C0.804375 0.433125 0.804375 0.433125 1.625 0.875 C6.64611242 3.25342167 11.49490281 4.33938834 17 5 C17 5.33 17 5.66 17 6 C11.72 6 6.44 6 1 6 C0.67 6.66 0.34 7.32 0 8 C7.92 8 15.84 8 24 8 C24 7.34 24 6.68 24 6 C24.99 6.33 25.98 6.66 27 7 C26.360625 7.28875 25.72125 7.5775 25.0625 7.875 C22.84793921 8.82823451 22.84793921 8.82823451 22 11 C13.29245801 13.12379073 6.28602056 11.85256446 -2 9 C-2.25 3.375 -2.25 3.375 0 0 Z " fill="#E4BDBF" transform="translate(368,154)"/>
<path d="M0 0 C0.66 0 1.32 0 2 0 C1.88465396 1.56324232 1.75724874 3.12559683 1.625 4.6875 C1.55539063 5.55761719 1.48578125 6.42773438 1.4140625 7.32421875 C1 10 1 10 -0.015625 12.38671875 C-3.18697435 20.80589618 -1.41664089 30.69450458 2.02734375 38.73046875 C2.92141569 40.81663661 3.51684364 42.78765245 4 45 C4.66 45 5.32 45 6 45 C6 45.66 6 46.32 6 47 C6.66 47 7.32 47 8 47 C8.433125 47.9075 8.86625 48.815 9.3125 49.75 C10.70517271 52.43218449 12.11112757 54.66139605 14 57 C7.30109468 54.34430925 3.49502093 46.98637759 0.40625 40.81640625 C-5.82677965 26.30286918 -4.09112357 14.72073926 0 0 Z " fill="#EFD7D8" transform="translate(138,71)"/>
<path d="M0 0 C1.65 0 3.3 0 5 0 C5 2.97 5 5.94 5 9 C4.34 8.34 3.68 7.68 3 7 C1.37653416 8.62346584 1.87008355 10.42541443 1.8671875 12.6640625 C1.86589844 13.62183594 1.86460938 14.57960937 1.86328125 15.56640625 C1.86714844 16.57574219 1.87101562 17.58507812 1.875 18.625 C1.87113281 19.61113281 1.86726563 20.59726563 1.86328125 21.61328125 C1.29166263 30.31251581 1.29166263 30.31251581 4 38 C4.37581274 39.8878718 4.70062616 41.78600836 5 43.6875 C5.165 44.72261719 5.33 45.75773437 5.5 46.82421875 C5.665 47.87222656 5.83 48.92023438 6 50 C6.33146682 52.00031019 6.66423619 54.0004066 7 56 C-0.71061472 48.28938528 -1.1623638 28.45364965 -1.25 18.0625 C-1.09476057 12.02368635 -0.60631791 6.00904355 0 0 Z " fill="#F5E5E6" transform="translate(45,125)"/>
<path d="M0 0 C0.99 0.99 1.98 1.98 3 3 C3 4.32 3 5.64 3 7 C7.62 7.66 12.24 8.32 17 9 C17.66 7.68 18.32 6.36 19 5 C19.99 5 20.98 5 22 5 C21.8125 7.375 21.8125 7.375 21 10 C16.54316512 12.57564619 11.86997995 12.33254406 6.875 12.3125 C6.06417969 12.32861328 5.25335938 12.34472656 4.41796875 12.36132812 C3.63808594 12.36197266 2.85820312 12.36261719 2.0546875 12.36328125 C0.99483643 12.36775269 0.99483643 12.36775269 -0.08642578 12.37231445 C-2.52450801 11.89794913 -3.42528129 10.86616195 -5 9 C-3.02 9 -1.04 9 1 9 C0.67 6.03 0.34 3.06 0 0 Z " fill="#E0ADAF" transform="translate(324,152)"/>
<path d="M0 0 C1.32 0 2.64 0 4 0 C5.17426264 2.34852528 5.11508173 3.73774065 5.09765625 6.3515625 C5.09443359 7.20234375 5.09121094 8.053125 5.08789062 8.9296875 C5.07951172 9.81914063 5.07113281 10.70859375 5.0625 11.625 C5.05798828 12.5221875 5.05347656 13.419375 5.04882812 14.34375 C5.03702591 16.56256648 5.02056155 18.78125018 5 21 C6.2065625 20.9690625 6.2065625 20.9690625 7.4375 20.9375 C10 21 10 21 11 22 C13.32817964 22.36760731 15.6618385 22.70241581 18 23 C18 23.33 18 23.66 18 24 C16.06280622 24.05406122 14.12518079 24.09282025 12.1875 24.125 C11.10855469 24.14820312 10.02960938 24.17140625 8.91796875 24.1953125 C6 24 6 24 3 22 C2.65942383 19.93701172 2.65942383 19.93701172 2.70703125 17.4296875 C2.71669922 16.53378906 2.72636719 15.63789062 2.73632812 14.71484375 C2.76146484 13.77769531 2.78660156 12.84054688 2.8125 11.875 C2.82603516 10.93011719 2.83957031 9.98523438 2.85351562 9.01171875 C2.88893694 6.67391221 2.93832729 4.33723763 3 2 C2.01 2.495 2.01 2.495 1 3 C0.67 10.59 0.34 18.18 0 26 C-0.33 26 -0.66 26 -1 26 C-1.02886751 21.85418113 -1.04675327 17.70838784 -1.0625 13.5625 C-1.07087891 12.37849609 -1.07925781 11.19449219 -1.08789062 9.97460938 C-1.09111328 8.84990234 -1.09433594 7.72519531 -1.09765625 6.56640625 C-1.10289307 5.52427979 -1.10812988 4.48215332 -1.11352539 3.40844727 C-1 1 -1 1 0 0 Z " fill="#C7A59E" transform="translate(180,72)"/>
<path d="M0 0 C2.77195283 2.77195283 2.29646217 4.51905931 2.37890625 8.3984375 C2.43014648 10.32429687 2.43014648 10.32429687 2.48242188 12.2890625 C2.50974629 13.65102914 2.53643241 15.01300873 2.5625 16.375 C2.62053706 19.02884764 2.68610287 21.68229916 2.75390625 24.3359375 C2.77783447 25.51720215 2.8017627 26.6984668 2.82641602 27.91552734 C3.02211816 31.54585142 3.02211816 31.54585142 4 35 C6.49034386 36.29660434 6.49034386 36.29660434 9 37 C8.67 38.65 8.34 40.3 8 42 C1.00542005 44.17073171 1.00542005 44.17073171 -3.3125 43.4375 C-6.47079084 41.74818164 -7.48489182 40.19856171 -9 37 C-8.01 37 -7.02 37 -6 37 C-5.55011719 37.49113281 -5.10023438 37.98226562 -4.63671875 38.48828125 C-2.35813044 40.59284849 -0.85527438 40.30604965 2.1875 40.1875 C3.08855469 40.16042969 3.98960937 40.13335937 4.91796875 40.10546875 C5.60503906 40.07066406 6.29210937 40.03585938 7 40 C7 39.01 7 38.02 7 37 C5.7934375 36.814375 5.7934375 36.814375 4.5625 36.625 C3.716875 36.41875 2.87125 36.2125 2 36 C0.4725361 32.9450722 0.76008168 29.7236686 0.68359375 26.3671875 C0.66281265 25.61535187 0.64203156 24.86351624 0.62062073 24.08889771 C0.55517295 21.68435915 0.49626262 19.27971033 0.4375 16.875 C0.39431023 15.24608229 0.35069579 13.61717578 0.30664062 11.98828125 C0.19949649 7.99230085 0.09821567 3.99620941 0 0 Z " fill="#F0D8D9" transform="translate(441,122)"/>
<path d="M0 0 C0.66 0.33 1.32 0.66 2 1 C-2.75 5 -2.75 5 -5 5 C-5.66 6.32 -6.32 7.64 -7 9 C-7.66 9 -8.32 9 -9 9 C-9.20496094 9.62648438 -9.40992188 10.25296875 -9.62109375 10.8984375 C-9.89050781 11.71570313 -10.15992188 12.53296875 -10.4375 13.375 C-10.70433594 14.18710938 -10.97117187 14.99921875 -11.24609375 15.8359375 C-12 18 -12 18 -13 20 C-13.2322646 22.71262116 -13.41936235 25.40773126 -13.5625 28.125 C-13.60568359 28.87910156 -13.64886719 29.63320312 -13.69335938 30.41015625 C-13.7994832 32.27321888 -13.90025001 34.13658524 -14 36 C-13.34 36 -12.68 36 -12 36 C-11.67 39.63 -11.34 43.26 -11 47 C-15.1159843 40.82602355 -17.88429768 31.30578609 -16.64453125 23.8671875 C-16.16048475 21.89460704 -15.58363282 19.94544273 -15 18 C-14.66009726 16.66832624 -14.32498495 15.3353927 -14 14 C-13.34 14 -12.68 14 -12 14 C-11.835 13.154375 -11.67 12.30875 -11.5 11.4375 C-9.27421392 6.33674023 -4.9982772 2.4991386 0 0 Z " fill="#F4E7E6" transform="translate(69,87)"/>
<path d="M0 0 C1.01513672 -0.00483398 1.01513672 -0.00483398 2.05078125 -0.00976562 C5.73473014 0.03019832 7.36207954 0.22055303 10.5 2.3125 C10.17 4.2925 9.84 6.2725 9.5 8.3125 C8.2934375 7.879375 8.2934375 7.879375 7.0625 7.4375 C1.31128729 5.62132756 -4.58234508 4.45785257 -10.5 3.3125 C-7.80483588 -0.55669394 -4.29602545 -0.10228632 0 0 Z " fill="#D6959A" transform="translate(385.5,115.6875)"/>
<path d="M0 0 C3 0.125 3 0.125 6 1 C8.42441613 4.67676353 8.31749012 7.61748888 7.81640625 11.8671875 C6.19317703 18.09603837 2.9467261 23.69461084 -0.10107422 29.33105469 C-1.10829976 31.20106929 -2.06581774 33.09250742 -3 35 C-2.01 35.33 -1.02 35.66 0 36 C-0.66 37.32 -1.32 38.64 -2 40 C-2.99 40 -3.98 40 -5 40 C-5.58788207 33.62567869 -3.78676043 29.89299154 -0.625 24.4375 C4.78292776 15.6119199 4.78292776 15.6119199 5.625 5.625 C5.41875 4.42875 5.2125 3.2325 5 2 C2.69 2 0.38 2 -2 2 C-1.34 1.34 -0.68 0.68 0 0 Z " fill="#E7E7E2" transform="translate(211,136)"/>
<path d="M0 0 C2.3431213 0.25561323 4.67843403 0.59270772 7 1 C8.61774194 4.23548388 8.44310173 7.49160547 8 11 C7.19009384 13.22409464 6.19963369 15.29003142 5.15625 17.4140625 C2.91803549 22.41979901 1.52769994 27.7424369 0 33 C-0.33 33 -0.66 33 -1 33 C-0.6164498 24.44286268 0.13326181 16.73347638 4 9 C4.99 9 5.98 9 7 9 C6.01 6.69 5.02 4.38 4 2 C2.35 2 0.7 2 -1 2 C-0.67 1.34 -0.34 0.68 0 0 Z " fill="#E9CACB" transform="translate(178,147)"/>
<path d="M0 0 C0.66 0.66 1.32 1.32 2 2 C1.63318342 4.93453261 1.13562754 5.86437246 -1 8 C-2.32 8 -3.64 8 -5 8 C-5.66 11.3 -6.32 14.6 -7 18 C-7.33 18 -7.66 18 -8 18 C-8.08074203 15.37438891 -8.1403623 12.75124324 -8.1875 10.125 C-8.21263672 9.37863281 -8.23777344 8.63226563 -8.26367188 7.86328125 C-8.29296875 5.6953125 -8.29296875 5.6953125 -8 2 C-4.77626323 -0.14915785 -3.73296326 -0.38286803 0 0 Z " fill="#F1DCDD" transform="translate(153,135)"/>
<path d="M0 0 C2.14576637 -0.02685938 4.29162645 -0.04633088 6.4375 -0.0625 C7.63246094 -0.07410156 8.82742187 -0.08570313 10.05859375 -0.09765625 C13 0 13 0 14 1 C16.29151417 1.08790975 18.58572524 1.10694038 20.87890625 1.09765625 C21.5655687 1.0962413 22.25223114 1.09482635 22.95970154 1.09336853 C25.16067801 1.08775479 27.36155409 1.07520007 29.5625 1.0625 C31.05143083 1.05748676 32.54036324 1.05292355 34.02929688 1.04882812 C37.68623075 1.03778093 41.34310558 1.02050713 45 1 C45 1.33 45 1.66 45 2 C31.84647985 4.9405075 17.08460351 5.66582961 4 2 C2.66707533 1.66503626 1.33385826 1.33122655 0 1 C0 0.67 0 0.34 0 0 Z " fill="#E7C5C6" transform="translate(118,239)"/>
<path d="M0 0 C0 0.66 0 1.32 0 2 C-0.99 2.495 -0.99 2.495 -2 3 C-1.44127197 3.01981934 -0.88254395 3.03963867 -0.30688477 3.06005859 C2.27497418 3.1565219 4.85615392 3.26569812 7.4375 3.375 C8.31599609 3.4059375 9.19449219 3.436875 10.09960938 3.46875 C15.78257293 3.72039414 21.60319302 4.05519069 27 6 C27.495 6.99 27.495 6.99 28 8 C27.30519531 7.84402344 26.61039063 7.68804687 25.89453125 7.52734375 C17.41937424 5.90535553 9.56671884 6.04441017 0.9855957 6.63061523 C-0.3279187 6.7187146 -0.3279187 6.7187146 -1.66796875 6.80859375 C-2.45453857 6.86845459 -3.2411084 6.92831543 -4.05151367 6.98999023 C-6 7 -6 7 -8 6 C-8 5.01 -8 4.02 -8 3 C-2.25 0 -2.25 0 0 0 Z " fill="#D7DBD2" transform="translate(167,209)"/>
<path d="M0 0 C0 0.99 0 1.98 0 3 C-1.96875 4.60546875 -1.96875 4.60546875 -4.5 6.1875 C-5.3353125 6.71730469 -6.170625 7.24710938 -7.03125 7.79296875 C-7.6809375 8.19128906 -8.330625 8.58960938 -9 9 C-7.27318563 9.50806447 -5.54342021 10.00610467 -3.8125 10.5 C-2.36810547 10.91765625 -2.36810547 10.91765625 -0.89453125 11.34375 C1.90175874 11.97772668 4.14998485 12.26959603 7 12 C9.7905817 10.10183458 9.7905817 10.10183458 12 8 C11.39816251 10.02045442 10.72693904 12.02111039 10 14 C5.35642224 16.32178888 -1.99756839 13.57692435 -6.79296875 12.1953125 C-8.87462301 11.50032459 -10.93953701 10.7555031 -13 10 C-13 9.34 -13 8.68 -13 8 C-12.195625 7.525625 -11.39125 7.05125 -10.5625 6.5625 C-7.7081924 5.20016328 -7.7081924 5.20016328 -7 2 C-3.4375 0.8125 -3.4375 0.8125 0 0 Z " fill="#ECCFD0" transform="translate(119,134)"/>
<path d="M0 0 C0.66 0 1.32 0 2 0 C1.34 3.3 0.68 6.6 0 10 C-1.32 10 -2.64 10 -4 10 C-4 10.66 -4 11.32 -4 12 C-6.52475462 13.26237731 -8.31200466 13.09856404 -11.125 13.0625 C-12.03507812 13.05347656 -12.94515625 13.04445312 -13.8828125 13.03515625 C-14.58148438 13.02355469 -15.28015625 13.01195312 -16 13 C-15.67 12.34 -15.34 11.68 -15 11 C-13.02 11 -11.04 11 -9 11 C-9 10.34 -9 9.68 -9 9 C-8.01 8.67 -7.02 8.34 -6 8 C-4.77479736 4.99152582 -4.77479736 4.99152582 -4 2 C-3.67 2.66 -3.34 3.32 -3 4 C-2.01 4 -1.02 4 0 4 C0 2.68 0 1.36 0 0 Z " fill="#D4888C" transform="translate(396,150)"/>
<path d="M0 0 C1.92578125 0.71875 1.92578125 0.71875 4 2 C4.79296875 4.09375 4.79296875 4.09375 5.1875 6.5 C5.75272916 9.85967912 5.75272916 9.85967912 7 13 C4.36 12.67 1.72 12.34 -1 12 C-2 4.25 -2 4.25 -2 2 C-1.34 2 -0.68 2 0 2 C0 1.34 0 0.68 0 0 Z " fill="#D6898C" transform="translate(320,149)"/>
<path d="M0 0 C0.66 0.33 1.32 0.66 2 1 C1.4225 1.61875 0.845 2.2375 0.25 2.875 C-5.19704202 10.44033614 -7.88385592 19.69005095 -7 29 C-6.13803683 33.36995284 -5.1049063 37.68560395 -4 42 C-6.81818157 40.59090922 -7.38069404 38.57052411 -8.390625 35.6953125 C-10.55329183 26.12967075 -9.6648447 15.09743802 -6 6 C-4.4707084 3.82531928 -3.13976829 2.63298106 -1 1 C-0.67 0.67 -0.34 0.34 0 0 Z " fill="#EED6D7" transform="translate(153,67)"/>
<path d="M0 0 C0.66 0.33 1.32 0.66 2 1 C1.01 1.33 0.02 1.66 -1 2 C-1.33 2.99 -1.66 3.98 -2 5 C-4.109375 6.5703125 -4.109375 6.5703125 -6.75 8.125 C-7.61109375 8.64320312 -8.4721875 9.16140625 -9.359375 9.6953125 C-14.93808109 12.45165545 -20.58851618 12.18290393 -26.6875 12.1875 C-27.9878418 12.20586914 -27.9878418 12.20586914 -29.31445312 12.22460938 C-30.14267578 12.22654297 -30.97089844 12.22847656 -31.82421875 12.23046875 C-32.95476685 12.23663208 -32.95476685 12.23663208 -34.1081543 12.24291992 C-36 12 -36 12 -38 10 C-36.98421875 10.03480469 -35.9684375 10.06960937 -34.921875 10.10546875 C-26.11354026 10.31268579 -18.49294198 9.61009204 -10 7 C-8.66879536 6.65826458 -7.33621989 6.32156694 -6 6 C-6 5.34 -6 4.68 -6 4 C-5.01 3.67 -4.02 3.34 -3 3 C-1.33289654 1.50014391 -1.33289654 1.50014391 0 0 Z " fill="#C6AAA2" transform="translate(210,118)"/>
<path d="M0 0 C1.6045556 0.14148989 3.20863767 0.28835686 4.8125 0.4375 C5.70582031 0.51871094 6.59914062 0.59992188 7.51953125 0.68359375 C10 1 10 1 13 2 C14.41047387 2.09173532 15.82482899 2.13066416 17.23828125 2.1328125 C18.46901367 2.13474609 18.46901367 2.13474609 19.72460938 2.13671875 C21.00561523 2.13091797 21.00561523 2.13091797 22.3125 2.125 C23.57610352 2.13080078 23.57610352 2.13080078 24.86523438 2.13671875 C29.35696895 2.12969493 33.57962814 1.90859193 38 1 C33.58644911 5.41355089 26.96564411 5.16065512 21.0625 5.25 C13.54076517 5.13725451 6.88294577 4.10842712 0 1 C0 0.67 0 0.34 0 0 Z " fill="#EED2D3" transform="translate(161,134)"/>
<path d="M0 0 C0.33 0 0.66 0 1 0 C-0.12711864 13.94067797 -0.12711864 13.94067797 -2 20 C-2.66 20.33 -3.32 20.66 -4 21 C-4.95928739 22.68702265 -5.9156433 24.37588248 -6.84765625 26.078125 C-8.60082791 29.00205876 -10.75328534 31.44124163 -13 34 C-14.32 33.67 -15.64 33.34 -17 33 C-16.46890625 32.5875 -15.9378125 32.175 -15.390625 31.75 C-8.09833219 25.78841756 -5.30304253 20.05863393 -3 11 C-2.46077697 9.02016617 -1.91897054 7.04103469 -1.375 5.0625 C-0.9162489 3.37511352 -0.4577719 1.68765239 0 0 Z " fill="#E2E3DC" transform="translate(184,175)"/>
<path d="M0 0 C0.33 0.66 0.66 1.32 1 2 C0.22265625 3.7265625 0.22265625 3.7265625 -0.9375 5.625 C-1.618125 6.73875 -2.29875 7.8525 -3 9 C0.3863251 10.50930183 0.3863251 10.50930183 4 11 C4.103125 9.906875 4.20625 8.81375 4.3125 7.6875 C4.97307727 4.14440371 5.2027092 3.06756277 8 1 C7.67 3.31 7.34 5.62 7 8 C6.34 8 5.68 8 5 8 C5 10.31 5 12.62 5 15 C1.51329166 13.8905928 -1.77484237 12.73662334 -5 11 C-5 8.69 -5 6.38 -5 4 C-4.01 3.67 -3.02 3.34 -2 3 C-1.34 2.01 -0.68 1.02 0 0 Z " fill="#F0D9DA" transform="translate(144,153)"/>
<path d="M0 0 C0.66 0.33 1.32 0.66 2 1 C1.74337755 2.44010481 1.46909179 3.8770687 1.1875 5.3125 C1.03667969 6.11300781 0.88585937 6.91351563 0.73046875 7.73828125 C-0.07572236 10.23445587 -1.02052002 11.32422106 -3 13 C-5.32590854 9.36576791 -5.16265833 6.22911669 -5 2 C-2.625 0.9375 -2.625 0.9375 0 0 Z " fill="#D78487" transform="translate(414,141)"/>
<path d="M0 0 C0 0.33 0 0.66 0 1 C-0.90492188 1.14695312 -0.90492188 1.14695312 -1.828125 1.296875 C-6.69216041 2.20692033 -9.89087142 2.85449523 -13 7 C-14.28605661 9.57211322 -14.21043941 11.56906966 -14.31640625 14.4453125 C-14.35830078 15.52167969 -14.40019531 16.59804687 -14.44335938 17.70703125 C-14.48267578 18.83496094 -14.52199219 19.96289062 -14.5625 21.125 C-14.60568359 22.26066406 -14.64886719 23.39632812 -14.69335938 24.56640625 C-14.7996604 27.37747768 -14.90169405 30.18863945 -15 33 C-15.33 33 -15.66 33 -16 33 C-16.05817206 28.77089131 -16.09365463 24.54188591 -16.125 20.3125 C-16.14175781 19.11431641 -16.15851563 17.91613281 -16.17578125 16.68164062 C-16.18222656 15.52470703 -16.18867188 14.36777344 -16.1953125 13.17578125 C-16.20578613 12.11270752 -16.21625977 11.04963379 -16.22705078 9.9543457 C-15.99000123 6.86989767 -15.43423095 4.73440174 -14 2 C-9.35371312 -0.32314344 -5.07023103 -0.17483555 0 0 Z " fill="#E7C3C6" transform="translate(483,122)"/>
<path d="M0 0 C-0.66 1.32 -1.32 2.64 -2 4 C-2.66 4 -3.32 4 -4 4 C-5.1139553 15.09925765 -5.1139553 15.09925765 -1 25 C0.58245275 26.75149165 0.58245275 26.75149165 2 28 C-2.34185387 26.0338775 -4.85617758 23.28764485 -7 19 C-7.57674412 12.31198646 -7.3283196 6.88856545 -4 1 C-2 0 -2 0 0 0 Z " fill="#E3E2DC" transform="translate(161,81)"/>
<path d="M0 0 C1.99954746 -0.04254356 4.00041636 -0.04080783 6 0 C6.33 0.33 6.66 0.66 7 1 C6.71269945 3.33944736 6.38063221 5.6739143 6 8 C3.625 8.125 3.625 8.125 1 8 C0.34 7.34 -0.32 6.68 -1 6 C-0.625 2.875 -0.625 2.875 0 0 Z " fill="#F2E0E0" transform="translate(109,74)"/>
<path d="M0 0 C4.83085356 4.67501958 4.83085356 4.67501958 5.375 8.9375 C5 12 5 12 2.87109375 13.7421875 C-0.69013921 15.3023467 -2.54120957 14.97491229 -6.3125 14.1875 C-7.38113281 13.97480469 -8.44976562 13.76210937 -9.55078125 13.54296875 C-10.35902344 13.36378906 -11.16726562 13.18460938 -12 13 C-12 12.67 -12 12.34 -12 12 C-10.58344207 11.9727585 -9.16672955 11.95349533 -7.75 11.9375 C-6.56664062 11.92009766 -6.56664062 11.92009766 -5.359375 11.90234375 C-3.09308998 11.99614694 -1.1711105 12.36758937 1 13 C1 12.34 1 11.68 1 11 C1.66 11 2.32 11 3 11 C2.50168276 7.31245243 1.89932357 5.39509338 -1 3 C-0.67 2.01 -0.34 1.02 0 0 Z " fill="#E5C1C3" transform="translate(140,203)"/>
<path d="M0 0 C1 3 1 3 0.328125 4.90234375 C-1.5640635 8.47419233 -3.39815803 11.87778963 -6 15 C-6.66 14.67 -7.32 14.34 -8 14 C-7.01 10.04 -6.02 6.08 -5 2 C-3.35 2 -1.7 2 0 2 C0 1.34 0 0.68 0 0 Z " fill="#E6BEC0" transform="translate(174,186)"/>
<path d="M0 0 C0.69762451 0.28536621 1.39524902 0.57073242 2.11401367 0.86474609 C5.11164583 2.04391787 8.1305788 3.11399269 11.17578125 4.1640625 C12.33271484 4.56367188 13.48964844 4.96328125 14.68164062 5.375 C15.87982422 5.7875 17.07800781 6.2 18.3125 6.625 C19.53001953 7.04523438 20.74753906 7.46546875 22.00195312 7.8984375 C25.0009292 8.93337826 28.00028862 9.9671928 31 11 C27.30581799 12.231394 24.7943739 11.64432764 21 11 C21 10.34 21 9.68 21 9 C20.278125 9.03867188 19.55625 9.07734375 18.8125 9.1171875 C15.7720556 8.99050232 13.78510368 8.31737251 11 7.125 C10.175 6.77695313 9.35 6.42890625 8.5 6.0703125 C7.2625 5.54050781 7.2625 5.54050781 6 5 C5.0925 4.68804687 4.185 4.37609375 3.25 4.0546875 C2.5075 3.70664063 1.765 3.35859375 1 3 C0.67 2.01 0.34 1.02 0 0 Z " fill="#E7C4C6" transform="translate(69,164)"/>
<path d="M0 0 C0.66 0.33 1.32 0.66 2 1 C0.625 2.5 0.625 2.5 -1 4 C-1.66 4 -2.32 4 -3 4 C-3.1968121 6.04079005 -3.38202831 8.08270007 -3.5625 10.125 C-3.66691406 11.26195312 -3.77132813 12.39890625 -3.87890625 13.5703125 C-3.99608016 16.88897993 -3.6655072 19.7562686 -3 23 C-6.09540351 20.74879745 -7.03681699 17.8556376 -7.83984375 14.19140625 C-8.12101543 10.34415478 -6.97998528 7.26625309 -5 4 C-2.3125 1.5 -2.3125 1.5 0 0 Z " fill="#EDD1D2" transform="translate(412,139)"/>
<path d="M0 0 C0.7528125 0.18046875 1.505625 0.3609375 2.28125 0.546875 C4.49978224 1.24993099 6.4520486 2.15155334 8.5 3.25 C9.16 1.93 9.82 0.61 10.5 -0.75 C11.16 -0.42 11.82 -0.09 12.5 0.25 C11.84 2.23 11.18 4.21 10.5 6.25 C5.46592472 5.74659247 1.97227353 4.53371414 -2.5 2.25 C-5.7366963 1.54241674 -5.7366963 1.54241674 -8.5 1.25 C-5.30692227 -0.69487462 -3.60821847 -0.91441153 0 0 Z " fill="#EAC9CB" transform="translate(164.5,149.75)"/>
<path d="M0 0 C0.33 0 0.66 0 1 0 C0.51030705 6.61085476 -1.33442742 11.94977014 -4 18 C-4.66 17.01 -5.32 16.02 -6 15 C-7.65 16.65 -9.3 18.3 -11 20 C-9.61290323 14.4516129 -9.61290323 14.4516129 -6.625 12.25 C-2.75238668 8.93061715 -1.61979482 4.74174573 0 0 Z " fill="#CAA19E" transform="translate(223,98)"/>
<path d="M0 0 C1.2065625 0.0309375 1.2065625 0.0309375 2.4375 0.0625 C3.0625 2.9375 3.0625 2.9375 3.4375 6.0625 C2.7775 6.7225 2.1175 7.3825 1.4375 8.0625 C-1.49703261 7.69568342 -2.42687246 7.19812754 -4.5625 5.0625 C-3.80953264 0.09291543 -3.80953264 0.09291543 0 0 Z " fill="#E6C2C4" transform="translate(170.5625,140.9375)"/>
<path d="M0 0 C0.804375 0.433125 0.804375 0.433125 1.625 0.875 C6.64611242 3.25342167 11.49490281 4.33938834 17 5 C17 5.33 17 5.66 17 6 C11.72 6 6.44 6 1 6 C0.67 6.99 0.34 7.98 0 9 C-0.66 9 -1.32 9 -2 9 C-2.25 3.375 -2.25 3.375 0 0 Z " fill="#E9CACB" transform="translate(368,154)"/>
<path d="M0 0 C1.32 0.33 2.64 0.66 4 1 C3.34 1.66 2.68 2.32 2 3 C1.82467711 5.86888581 1.76862386 8.63992645 1.8046875 11.5078125 C1.8075174 12.34843231 1.81034729 13.18905212 1.81326294 14.05514526 C1.8244757 16.74524046 1.84958197 19.4350051 1.875 22.125 C1.8850284 23.94660978 1.89415449 25.76822477 1.90234375 27.58984375 C1.92441858 32.06002358 1.95895566 36.52995571 2 41 C1.67 41 1.34 41 1 41 C0.67 27.47 0.34 13.94 0 0 Z " fill="#D49A9D" transform="translate(458,117)"/>
<path d="M0 0 C0 0.66 0 1.32 0 2 C-3.08809695 3.76462683 -4.23312136 4 -8 4 C-8 4.66 -8 5.32 -8 6 C-9.65 6.66 -11.3 7.32 -13 8 C-13 6.02 -13 4.04 -13 2 C-11.39658445 1.66307215 -9.79223445 1.33058907 -8.1875 1 C-7.29417969 0.814375 -6.40085937 0.62875 -5.48046875 0.4375 C-3 0 -3 0 0 0 Z " fill="#D3979B" transform="translate(424,117)"/>
<path d="M0 0 C0.625 2.3125 0.625 2.3125 1 5 C0.01 6.485 0.01 6.485 -1 8 C-3.4375 7.25 -3.4375 7.25 -6 6 C-6.8125 3.875 -6.8125 3.875 -7 2 C-4 0 -4 0 0 0 Z " fill="#E9CCCD" transform="translate(124,92)"/>
<path d="M0 0 C0.33 0 0.66 0 1 0 C0.44420011 6.80854868 -1.55931932 11.20039569 -6.125 16.4375 C-8 18 -8 18 -10 18 C-9.505 16.515 -9.505 16.515 -9 15 C-8.34 15 -7.68 15 -7 15 C-6.896875 14.236875 -6.79375 13.47375 -6.6875 12.6875 C-5.91325322 9.66089895 -5.14164574 9.14164574 -3 7 C-1.86177174 4.70809241 -0.94415749 2.38287368 0 0 Z " fill="#F5F5F2" transform="translate(221,154)"/>
<path d="M0 0 C4.30223961 4.15388652 5.14208823 8.71638855 6.38671875 14.35546875 C6.88184913 16.95835825 6.88184913 16.95835825 8 19 C5.61328125 18.3984375 5.61328125 18.3984375 3 17 C1.85546875 14.1015625 1.85546875 14.1015625 1.1875 10.625 C0.95417969 9.48289062 0.72085938 8.34078125 0.48046875 7.1640625 C0 4 0 4 0 0 Z " fill="#E9CACB" transform="translate(110,93)"/>
<path d="M0 0 C3.25563659 4.88345489 2.45144216 10.28622465 2 16 C1.07270266 19.92456163 -0.09598777 23.09598777 -3 26 C-2.47731534 23.23723823 -1.89130413 20.6739124 -1 18 C-0.85507877 16.59335074 -0.75371069 15.1818867 -0.68359375 13.76953125 C-0.64169922 12.96708984 -0.59980469 12.16464844 -0.55664062 11.33789062 C-0.51732422 10.50451172 -0.47800781 9.67113281 -0.4375 8.8125 C-0.39431641 7.96751953 -0.35113281 7.12253906 -0.30664062 6.25195312 C-0.20068482 4.16815567 -0.0998498 2.08409897 0 0 Z " fill="#ECCFD0" transform="translate(357,130)"/>
<path d="M0 0 C0.99 0 1.98 0 3 0 C3 0.66 3 1.32 3 2 C3.99 2.33 4.98 2.66 6 3 C6.6875 5.0625 6.6875 5.0625 7 7 C4.125 7.625 4.125 7.625 1 8 C-1 6 -1 6 -1.1875 3.4375 C-1 1 -1 1 0 0 Z " fill="#D68488" transform="translate(345,119)"/>
<path d="M0 0 C0.33 0 0.66 0 1 0 C1 6.27 1 12.54 1 19 C2.65 19 4.3 19 6 19 C6.33 19.33 6.66 19.66 7 20 C9.32817964 20.36760731 11.6618385 20.70241581 14 21 C14 21.33 14 21.66 14 22 C12.04174127 22.02694851 10.08337774 22.04637218 8.125 22.0625 C7.03445312 22.07410156 5.94390625 22.08570312 4.8203125 22.09765625 C2 22 2 22 0 21 C0 14.07 0 7.14 0 0 Z " fill="#C4B2A7" transform="translate(184,74)"/>
<path d="M0 0 C0.99 0 1.98 0 3 0 C2.8125 2.375 2.8125 2.375 2 5 C-2.2169156 7.76735086 -7.14510439 7.19038806 -12 7 C-12 6.34 -12 5.68 -12 5 C-11.30132812 4.97421875 -10.60265625 4.9484375 -9.8828125 4.921875 C-8.97273438 4.86515625 -8.06265625 4.8084375 -7.125 4.75 C-6.22007812 4.70359375 -5.31515625 4.6571875 -4.3828125 4.609375 C-1.82889456 4.24388852 -1.82889456 4.24388852 -0.6796875 1.953125 C-0.34324219 0.98632812 -0.34324219 0.98632812 0 0 Z " fill="#D68B8D" transform="translate(343,157)"/>
<path d="M0 0 C2.00720923 0.28674418 4.0085944 0.61866701 6 1 C5.67 2.65 5.34 4.3 5 6 C3.34385343 6.38218767 1.67542976 6.71395102 0 7 C-1 6 -1 6 -1.125 3.5 C-1 1 -1 1 0 0 Z " fill="#E2BBBD" transform="translate(129,110)"/>
<path d="M0 0 C0.99 0.33 1.98 0.66 3 1 C3.6875 3.0625 3.6875 3.0625 4 5 C9.12583611 5.10251672 13.94997778 5.03590199 19 4 C14.64399474 7.71481757 10.55437691 8.04990921 5 9 C3.35 6.03 1.7 3.06 0 0 Z " fill="#E8C8CA" transform="translate(145,199)"/>
<path d="M0 0 C0.33 0 0.66 0 1 0 C1.144375 1.134375 1.28875 2.26875 1.4375 3.4375 C1.61171478 6.80777201 1.61171478 6.80777201 3 8 C3.37581274 9.8878718 3.70062616 11.78600836 4 13.6875 C4.165 14.72261719 4.33 15.75773438 4.5 16.82421875 C4.665 17.87222656 4.83 18.92023438 5 20 C5.33146682 22.00031019 5.66423619 24.0004066 6 26 C3.69412696 23.69412696 3.31712405 22.22901367 2.4375 19.125 C2.06431641 17.82949219 2.06431641 17.82949219 1.68359375 16.5078125 C1.45800781 15.68023437 1.23242188 14.85265625 1 14 C0.70996094 13.01386719 0.70996094 13.01386719 0.4140625 12.0078125 C-0.09300881 9.54899502 -0.09550454 7.25834471 -0.0625 4.75 C-0.05347656 3.85796875 -0.04445312 2.9659375 -0.03515625 2.046875 C-0.02355469 1.37140625 -0.01195312 0.6959375 0 0 Z " fill="#ECCFD0" transform="translate(46,155)"/>
<path d="M0 0 C1.0209375 0.2165625 1.0209375 0.2165625 2.0625 0.4375 C6.23460554 1.23641383 11.11458473 1.94270764 15 0 C14 3 14 3 12 4 C8.16063232 4.1421988 4.67983361 4.17754676 1 3 C0.67 4.65 0.34 6.3 0 8 C-0.66 8 -1.32 8 -2 8 C-1.125 1.125 -1.125 1.125 0 0 Z " fill="#F0DADB" transform="translate(273,156)"/>
<path d="M0 0 C5.24660433 0.31797602 8.61825353 3.20860899 12 7 C13.4375 10.375 13.4375 10.375 14 13 C12 13 12 13 9.9375 11.1875 C8 9 8 9 7 6 C4.96183917 3.57361806 2.87793751 2.29010992 0 1 C0 0.67 0 0.34 0 0 Z " fill="#E5C1C3" transform="translate(343,116)"/>
<path d="M0 0 C1.22589844 0.15275391 1.22589844 0.15275391 2.4765625 0.30859375 C3.41628906 0.43427734 3.41628906 0.43427734 4.375 0.5625 C3.715 1.2225 3.055 1.8825 2.375 2.5625 C2.13287127 4.54378508 2.13287127 4.54378508 2.25 6.6875 C2.29125 7.96625 2.3325 9.245 2.375 10.5625 C1.818125 9.840625 1.26125 9.11875 0.6875 8.375 C-1.60409334 5.58792701 -4.03959857 3.07608472 -6.625 0.5625 C-4.10446405 -0.69776798 -2.7707902 -0.35624445 0 0 Z " fill="#DEA4A7" transform="translate(342.625,117.4375)"/>
<path d="M0 0 C0.66 0.33 1.32 0.66 2 1 C1.04882866 2.1725131 0.08882991 3.33787015 -0.875 4.5 C-1.67550781 5.47453125 -1.67550781 5.47453125 -2.4921875 6.46875 C-2.98976562 6.9740625 -3.48734375 7.479375 -4 8 C-4.66 8 -5.32 8 -6 8 C-6.33 8.99 -6.66 9.98 -7 11 C-8.375 12.5 -8.375 12.5 -10 14 C-10.556875 14.556875 -11.11375 15.11375 -11.6875 15.6875 C-12.120625 16.120625 -12.55375 16.55375 -13 17 C-11.85569823 13.12697862 -10.76679902 9.99736561 -8 7 C-7.34 7 -6.68 7 -6 7 C-6 6.34 -6 5.68 -6 5 C-5.34 5 -4.68 5 -4 5 C-4 4.34 -4 3.68 -4 3 C-2 1.375 -2 1.375 0 0 Z " fill="#EED5D6" transform="translate(153,54)"/>
<path d="M0 0 C0.66 0 1.32 0 2 0 C0.80100302 3.0831351 -0.47700477 6.06279492 -2 9 C-1.01 9.33 -0.02 9.66 1 10 C0.34 11.32 -0.32 12.64 -1 14 C-1.99 14 -2.98 14 -4 14 C-4.49940808 7.88225104 -3.24900602 4.97504047 0 0 Z " fill="#EDECE8" transform="translate(210,162)"/>
<path d="M0 0 C0.61875 0.66 1.2375 1.32 1.875 2 C6.24240721 4.79514062 9.95182061 4.35288244 15 4 C14.67 4.99 14.34 5.98 14 7 C9.34690029 8.10788088 6.33875004 8.12116669 2 6 C0.125 3.375 0.125 3.375 -1 1 C-0.67 0.67 -0.34 0.34 0 0 Z " fill="#E9C9CA" transform="translate(433,158)"/>
<path d="M0 0 C0 0.99 0 1.98 0 3 C-1.828125 4.5703125 -1.828125 4.5703125 -4.25 6.125 C-5.03890625 6.64320313 -5.8278125 7.16140625 -6.640625 7.6953125 C-8.80769102 8.89365695 -10.58202022 9.54524234 -13 10 C-13 9.34 -13 8.68 -13 8 C-12.195625 7.525625 -11.39125 7.05125 -10.5625 6.5625 C-7.7081924 5.20016328 -7.7081924 5.20016328 -7 2 C-3.4375 0.8125 -3.4375 0.8125 0 0 Z " fill="#EFD5D6" transform="translate(119,134)"/>
<path d="M0 0 C-0.33 0.66 -0.66 1.32 -1 2 C-7.71726609 4.2390887 -14.06667782 4.68080538 -21 3 C-21 2.67 -21 2.34 -21 2 C-20.01257813 1.93941406 -19.02515625 1.87882813 -18.0078125 1.81640625 C-16.72648437 1.73261719 -15.44515625 1.64882812 -14.125 1.5625 C-12.84882813 1.48128906 -11.57265625 1.40007812 -10.2578125 1.31640625 C-6.54176911 0.95549556 -3.82085976 -0.10054894 0 0 Z " fill="#EBD1D2" transform="translate(347,162)"/>
<path d="M0 0 C1.2375 1.0209375 1.2375 1.0209375 2.5 2.0625 C2.5 2.7225 2.5 3.3825 2.5 4.0625 C-1.22217709 3.42074533 -1.22217709 3.42074533 -2.6875 1.53125 C-5.5227107 -0.76624832 -8.12147919 -0.22314736 -11.6875 -0.125 C-13.59595703 -0.08439453 -13.59595703 -0.08439453 -15.54296875 -0.04296875 C-17.00669922 0.00923828 -17.00669922 0.00923828 -18.5 0.0625 C-13.64509671 -4.79240329 -5.43035479 -3.44050847 0 0 Z " fill="#EFD6D8" transform="translate(492.5,116.9375)"/>
<path d="M0 0 C0.33 0 0.66 0 1 0 C1 4.62 1 9.24 1 14 C1.66 14 2.32 14 3 14 C3.33 17.63 3.66 21.26 4 25 C0.17583632 19.26375448 -0.27144641 14.9071371 -0.125 8.1875 C-0.11597656 7.39923828 -0.10695312 6.61097656 -0.09765625 5.79882812 C-0.07422504 3.86575334 -0.03835838 1.9328362 0 0 Z " fill="#E6C2C4" transform="translate(54,109)"/>
<path d="M0 0 C1.65 0 3.3 0 5 0 C5 4.62 5 9.24 5 14 C4.01 14.33 3.02 14.66 2 15 C2.33 10.38 2.66 5.76 3 1 C2.01 0.67 1.02 0.34 0 0 Z " fill="#EDD4D5" transform="translate(429,140)"/>
<path d="M0 0 C-1 2 -1 2 -3.00390625 2.703125 C-9.06691558 3.99903539 -13.1088574 3.9637142 -19 2 C-19 1.67 -19 1.34 -19 1 C-16.58343806 0.83168225 -14.16676951 0.66528738 -11.75 0.5 C-11.06808594 0.45230469 -10.38617188 0.40460938 -9.68359375 0.35546875 C-6.44268497 0.13521281 -3.2506634 0 0 0 Z " fill="#EBCFD1" transform="translate(292,163)"/>
<path d="M0 0 C3.20607991 2.89762325 4.84578504 6.24515625 6.81640625 10.0390625 C7.85114138 12.1483427 7.85114138 12.1483427 10 13 C10 14.65 10 16.3 10 18 C6.92027267 16.46013633 5.9235986 13.50546684 4.375 10.5625 C4.05015625 9.96373047 3.7253125 9.36496094 3.390625 8.74804688 C1 4.26311384 1 4.26311384 1 2 C0.34 1.67 -0.32 1.34 -1 1 C-0.67 0.67 -0.34 0.34 0 0 Z " fill="#EFD6D7" transform="translate(58,134)"/>
<path d="M0 0 C2.0625 0.4375 2.0625 0.4375 4 1 C4 2.65 4 4.3 4 6 C2.35 6.33 0.7 6.66 -1 7 C-1.04254356 5.00045254 -1.04080783 2.99958364 -1 1 C-0.67 0.67 -0.34 0.34 0 0 Z " fill="#C55360" transform="translate(149,136)"/>
<path d="M0 0 C1.44031588 2.88063176 0.67629179 4.85839201 0.125 8 C-0.05804688 9.0725 -0.24109375 10.145 -0.4296875 11.25 C-1 14 -1 14 -2 16 C-2.66 15.67 -3.32 15.34 -4 15 C-4.59720137 9.17728663 -2.528243 5.0790596 0 0 Z " fill="#E4E3DD" transform="translate(228,108)"/>
<path d="M0 0 C3 3 3 3 3.1875 6.6875 C3.125625 7.780625 3.06375 8.87375 3 10 C2.34 10 1.68 10 1 10 C1 11.65 1 13.3 1 15 C0.67 15 0.34 15 0 15 C0 10.05 0 5.1 0 0 Z " fill="#CE898E" transform="translate(47,131)"/>
<path d="M0 0 C4.31687378 0.35001679 6.19275066 1.77686187 9 5 C8.67 5.66 8.34 6.32 8 7 C6.824375 6.01 6.824375 6.01 5.625 5 C3.28487188 2.79798559 3.28487188 2.79798559 1 3 C0.67 4.65 0.34 6.3 0 8 C-1.98 8 -3.96 8 -6 8 C-6 7.67 -6 7.34 -6 7 C-4.35 7 -2.7 7 -1 7 C-1.020625 6.030625 -1.04125 5.06125 -1.0625 4.0625 C-1 1 -1 1 0 0 Z " fill="#F3E4E3" transform="translate(185,38)"/>
<path d="M0 0 C1.96630396 2.94945594 3.25740853 5.73697474 4.625 9 C5.29402344 10.5778125 5.29402344 10.5778125 5.9765625 12.1875 C7 15 7 15 7 18 C3.36427261 15.57618174 3.11511319 14.2075195 1.8125 10.125 C1.46832031 9.07570312 1.12414063 8.02640625 0.76953125 6.9453125 C0 4 0 4 0 0 Z " fill="#EDD3D4" transform="translate(50,134)"/>
<path d="M0 0 C0.66 0 1.32 0 2 0 C1.22095672 10.55808656 1.22095672 10.55808656 -1 15 C-1.33 15 -1.66 15 -2 15 C-2.19392201 9.47322267 -1.7479503 5.24385089 0 0 Z " fill="#E4C0C2" transform="translate(138,71)"/>
<path d="M0 0 C0.33 0 0.66 0 1 0 C0.52432875 7.25398658 -1.29466594 13.26812223 -4 20 C-4.33 20 -4.66 20 -5 20 C-5 17.69 -5 15.38 -5 13 C-4.34 13 -3.68 13 -3 13 C-2.01 8.71 -1.02 4.42 0 0 Z " fill="#E8E7E2" transform="translate(241,162)"/>
<path d="M0 0 C0 0.66 0 1.32 0 2 C-5.24385089 3.7479503 -9.47322267 4.19392201 -15 4 C-10.34714182 0.89809455 -5.58467324 -0.33846504 0 0 Z " fill="#EAC9CB" transform="translate(429,135)"/>
<path d="M0 0 C3.65316671 1.24976756 4.78065836 1.67098753 7 5 C9.05925139 5.72382467 9.05925139 5.72382467 11 6 C11 6.99 11 7.98 11 9 C7.00584176 7.63057432 4.11667166 5.85694902 1 3 C0.67 2.01 0.34 1.02 0 0 Z " fill="#DFAEB1" transform="translate(122,181)"/>
<path d="M0 0 C0.66 0.33 1.32 0.66 2 1 C1.67 1.66 1.34 2.32 1 3 C5.29 3 9.58 3 14 3 C14 3.33 14 3.66 14 4 C11.7089095 4.19441368 9.41709663 4.38033135 7.125 4.5625 C5.21074219 4.71912109 5.21074219 4.71912109 3.2578125 4.87890625 C0 5 0 5 -2 4 C-2 3.01 -2 2.02 -2 1 C-1.34 0.67 -0.68 0.34 0 0 Z " fill="#F2E9E8" transform="translate(161,211)"/>
<path d="M0 0 C0.66 0.99 1.32 1.98 2 3 C0.7251791 5.84383123 -0.45137078 8.13754018 -3 10 C-5.1875 9.6875 -5.1875 9.6875 -7 9 C-5.68 8.67 -4.36 8.34 -3 8 C-2.87625 7.4225 -2.7525 6.845 -2.625 6.25 C-1.99351176 3.97664233 -1.11141809 2.0746471 0 0 Z " fill="#DEADB0" transform="translate(296,153)"/>
<path d="M0 0 C2.58926331 2.58926331 2.37398043 4.02705279 2.625 7.625 C2.69976562 8.62789062 2.77453125 9.63078125 2.8515625 10.6640625 C2.90054688 11.43492187 2.94953125 12.20578125 3 13 C-0.29671492 8.69993706 -1.23449203 6.51056266 -1 1 C-0.67 0.67 -0.34 0.34 0 0 Z " fill="#E7C6C7" transform="translate(129,129)"/>
<path d="M0 0 C2.475 0.495 2.475 0.495 5 1 C4.67 2.65 4.34 4.3 4 6 C2.68 5.67 1.36 5.34 0 5 C0 3.35 0 1.7 0 0 Z " fill="#D48E96" transform="translate(110,75)"/>
<path d="M0 0 C4.51815455 0.53154759 7.45285063 2.17840391 11 5 C11.875 7.25 11.875 7.25 12 9 C9.5625 8.1875 9.5625 8.1875 7 7 C6.67 6.01 6.34 5.02 6 4 C2.99992729 2.29144978 2.99992729 2.29144978 0 1 C0 0.67 0 0.34 0 0 Z " fill="#E8C6C8" transform="translate(386,136)"/>
<path d="M0 0 C0.66 0.66 1.32 1.32 2 2 C1.67 2.99 1.34 3.98 1 5 C1 4.34 1 3.68 1 3 C-4.3086849 3.58174845 -4.3086849 3.58174845 -9 6 C-7.07216706 0.62960823 -5.78296295 -0.43372222 0 0 Z " fill="#E5E3DD" transform="translate(238,102)"/>
<path d="M0 0 C10.395 0.99 10.395 0.99 21 2 C21 2.33 21 2.66 21 3 C17.87517438 3.08687496 14.75065754 3.14034568 11.625 3.1875 C10.29082031 3.22520508 10.29082031 3.22520508 8.9296875 3.26367188 C7.65351563 3.27817383 7.65351563 3.27817383 6.3515625 3.29296875 C5.17327881 3.31653442 5.17327881 3.31653442 3.97119141 3.34057617 C3.32069824 3.22818604 2.67020508 3.1157959 2 3 C1.34 2.01 0.68 1.02 0 0 Z " fill="#DB9D9F" transform="translate(129,223)"/>
<path d="M0 0 C4.455 0.99 4.455 0.99 9 2 C9 2.66 9 3.32 9 4 C5.7 4 2.4 4 -1 4 C-0.67 2.68 -0.34 1.36 0 0 Z " fill="#D58488" transform="translate(275,159)"/>
<path d="M0 0 C3.85645121 -0.22036864 6.49223216 0.39644899 10 2 C10 2.99 10 3.98 10 5 C9.01 5 8.02 5 7 5 C7 4.34 7 3.68 7 3 C4.69 2.67 2.38 2.34 0 2 C0 1.34 0 0.68 0 0 Z " fill="#E9CACC" transform="translate(376,142)"/>
<path d="M0 0 C1.58409994 0.11487748 3.16728963 0.24234508 4.75 0.375 C6.07257813 0.47941406 6.07257813 0.47941406 7.421875 0.5859375 C9.99066382 0.99850055 11.75841015 1.71160957 14 3 C14 3.33 14 3.66 14 4 C8.34605369 4.34615998 4.96993194 3.43425238 0 1 C0 0.67 0 0.34 0 0 Z " fill="#E9CACB" transform="translate(161,134)"/>
<path d="M0 0 C0 0.66 0 1.32 0 2 C-3.3 2.33 -6.6 2.66 -10 3 C-10 2.34 -10 1.68 -10 1 C-6.78548731 -0.60725635 -3.56387464 -0.05748185 0 0 Z " fill="#D48A90" transform="translate(432,137)"/>
<path d="M0 0 C0.33 0 0.66 0 1 0 C1.09765625 6.15234375 1.09765625 6.15234375 1 8 C0 9 0 9 -2.5625 9.0625 C-3.366875 9.041875 -4.17125 9.02125 -5 9 C-5.33 7.68 -5.66 6.36 -6 5 C-4.02 5.66 -2.04 6.32 0 7 C0 4.69 0 2.38 0 0 Z " fill="#D9A3A5" transform="translate(149,161)"/>
<path d="M0 0 C0 0.66 0 1.32 0 2 C-4.455 3.485 -4.455 3.485 -9 5 C-8.67 3.68 -8.34 2.36 -8 1 C-5.23735711 0.40267181 -2.83967231 0 0 0 Z " fill="#D58E92" transform="translate(424,117)"/>
<path d="M0 0 C3.36295835 1.44126786 5.62927102 3.20592655 8 6 C8 6.99 8 7.98 8 9 C5 8 5 8 4 6.0625 C3.67 5.381875 3.34 4.70125 3 4 C2.01 3.34 1.02 2.68 0 2 C0 1.34 0 0.68 0 0 Z " fill="#D19094" transform="translate(192,46)"/>
<path d="M0 0 C-9.41002278 4.59225513 -9.41002278 4.59225513 -14 4 C-9.9547574 0.44018651 -5.26757827 -1.75585942 0 0 Z " fill="#ECD0D1" transform="translate(189,233)"/>
<path d="M0 0 C1.11375 0.598125 2.2275 1.19625 3.375 1.8125 C4.00148438 2.14894531 4.62796875 2.48539063 5.2734375 2.83203125 C7 4 7 4 9 7 C6.03 6.01 3.06 5.02 0 4 C0 2.68 0 1.36 0 0 Z " fill="#E7C4C6" transform="translate(110,182)"/>
<path d="M0 0 C0.99 0 1.98 0 3 0 C3.33 2.64 3.66 5.28 4 8 C3.34 7.34 2.68 6.68 2 6 C1.01 6.495 1.01 6.495 0 7 C0 4.69 0 2.38 0 0 Z " fill="#E2CDCC" transform="translate(46,126)"/>
<path d="M0 0 C2.97 0.495 2.97 0.495 6 1 C5.67 1.99 5.34 2.98 5 4 C3.02 4.33 1.04 4.66 -1 5 C-0.01 3.68 0.98 2.36 2 1 C1.34 0.67 0.68 0.34 0 0 Z " fill="#D48B8F" transform="translate(189,225)"/>
<path d="M0 0 C1.22589844 0.01353516 1.22589844 0.01353516 2.4765625 0.02734375 C3.41628906 0.04474609 3.41628906 0.04474609 4.375 0.0625 C1.76808158 2.66941842 -0.00107794 2.76666963 -3.625 3.0625 C-4.615 2.4025 -5.605 1.7425 -6.625 1.0625 C-4.21954362 -0.14022819 -2.67503047 -0.03821472 0 0 Z " fill="#E3BABC" transform="translate(163.625,220.9375)"/>
<path d="M0 0 C0 3.54404336 -0.60989485 4.10267905 -2.875 6.6875 C-3.40867188 7.31011719 -3.94234375 7.93273437 -4.4921875 8.57421875 C-6 10 -6 10 -8 10 C-6.76044505 6.28133515 -4.81445146 4.67716114 -2 2 C-1.34 1.34 -0.68 0.68 0 0 Z " fill="#E2E3DC" transform="translate(219,162)"/>
<path d="M0 0 C0.93065133 2.60582371 1.14917407 3.64198224 0.0625 6.25 C-0.4634375 7.11625 -0.4634375 7.11625 -1 8 C-1.66 8 -2.32 8 -3 8 C-2.25 2.25 -2.25 2.25 0 0 Z " fill="#DEACAF" transform="translate(347,149)"/>
<path d="M0 0 C2.31 0.33 4.62 0.66 7 1 C7 1.66 7 2.32 7 3 C8.32 3.33 9.64 3.66 11 4 C10.01 4.495 10.01 4.495 9 5 C6.8359375 4.22265625 6.8359375 4.22265625 4.375 3.0625 C3.55773437 2.68222656 2.74046875 2.30195313 1.8984375 1.91015625 C1.27195312 1.60980469 0.64546875 1.30945313 0 1 C0 0.67 0 0.34 0 0 Z " fill="#E8C8CA" transform="translate(117,210)"/>
<path d="M0 0 C0.33 0.66 0.66 1.32 1 2 C-0.2739589 4.03833424 -1.61061923 6.03852126 -3 8 C-3.66 8 -4.32 8 -5 8 C-5 6.68 -5 5.36 -5 4 C-4.01 3.67 -3.02 3.34 -2 3 C-1.34 2.01 -0.68 1.02 0 0 Z " fill="#E7C6C8" transform="translate(144,153)"/>
<path d="M0 0 C2.93200474 2.85276137 5.64315404 5.65079784 8 9 C5.04709864 7.62901008 2.39580248 6.22467373 0 4 C0 2.68 0 1.36 0 0 Z " fill="#EFD6D7" transform="translate(58,152)"/>
<path d="M0 0 C0.33 0 0.66 0 1 0 C1.36625971 4.51720311 1.36625971 4.51720311 -0.375 6.8125 C-2 8 -2 8 -4 8 C-2.87548273 5.0280615 -1.77706209 2.66559313 0 0 Z " fill="#D69BA0" transform="translate(144,65)"/>
<path d="M0 0 C1.67542976 0.28604898 3.34385343 0.61781233 5 1 C3.3545622 2.68762851 1.68711423 4.3540349 0 6 C-0.33 6 -0.66 6 -1 6 C-1.042721 4.33388095 -1.04063832 2.66617115 -1 1 C-0.67 0.67 -0.34 0.34 0 0 Z " fill="#E1AFB1" transform="translate(155,61)"/>
<path d="M0 0 C0.99 0.33 1.98 0.66 3 1 C1.625 2.5 1.625 2.5 0 4 C-0.66 4 -1.32 4 -2 4 C-2.33 4.99 -2.66 5.98 -3 7 C-3.33 6.34 -3.66 5.68 -4 5 C-2.52830189 1.26415094 -2.52830189 1.26415094 0 0 Z " fill="#D8A1A5" transform="translate(179,148)"/>
<path d="M0 0 C0 0.99 0 1.98 0 3 C-2.31 3.66 -4.62 4.32 -7 5 C-7 4.01 -7 3.02 -7 2 C-4.69 1.34 -2.38 0.68 0 0 Z " fill="#E4B5B8" transform="translate(119,134)"/>
<path d="M0 0 C0.99 0 1.98 0 3 0 C2.67 2.31 2.34 4.62 2 7 C1.01 7.33 0.02 7.66 -1 8 C-0.67 5.36 -0.34 2.72 0 0 Z " fill="#D68689" transform="translate(139,75)"/>
<path d="M0 0 C-0.33 0.66 -0.66 1.32 -1 2 C-3.92824652 2.97608217 -5.95613276 3.08226668 -9 3 C-5.92807025 0.26939578 -4.09590633 -0.34132553 0 0 Z " fill="#E8C7C9" transform="translate(347,162)"/>
<path d="" fill="#FFFFFF" transform="translate(0,0)"/>
<path d="" fill="#FFFFFF" transform="translate(0,0)"/>
</svg>
